<svg xmlns="http://www.w3.org/2000/svg" xmlns:xlink="http://www.w3.org/1999/xlink" width="343" height="127" viewBox="0 0 343 127">
    <defs>
        <path id="a" d="M15.022 13.61S5.808 9.62.076 11.999C-.165 27.934 16.85 29.203 22.267 27.743c-2.936-4.63 4.205-13.55-1.413-20.14"/>
        <path id="c" d="M.002.068h6.286V6.63H.002z"/>
        <path id="e" d="M.123.096h14.39v17.597H.123V.096z"/>
        <path id="g" d="M0 9.738V.428h22.438v9.31H0z"/>
    </defs>
    <g fill="none" fill-rule="evenodd" transform="translate(-1 -2)">
        <rect width="200" height="85" x="58.055" y="43.965" fill="#FFB6AF" rx="3"/>
        <rect width="5" height="22" x="78" y="32" fill="#FFB6AF" rx="2"/>
        <rect width="5" height="22" x="232.424" y="32.965" fill="#FFB6AF" rx="2"/>
        <path fill="#6D6458" d="M335.692 61.135c5.873 1.817 12.1-15.684 4.34-17.765-8.184-2.09-77.095-8.017-85.664-9.18-9.996-1.35-20.16-2.262-30.302-2.975-10.168-.726-20.313-1.214-30.294-1.637-9.98-.449-19.84-.675-29.326-.83-19.023-.305-36.758-.498-51.927-.907-15.178-.385-27.822-.976-36.6-1.808-4.393-.39-7.796-.884-10.104-1.27-2.268-.47-5.362-1.664-5.362-1.664-.682-.134-1.23.218-1.34.783-.135.55.24 1.107.78 1.228 0 0 3.133 1.247 5.5 1.814a140.66 140.66 0 0 0 10.268 1.583c8.864 1.065 21.513 2.043 36.705 2.841 15.21.812 32.938 1.515 51.898 2.34 9.48.43 19.252.91 29.187 1.642 9.937.72 20.015 1.476 30.047 2.465 10.064.98 17.864 3.975 27.606 5.575 8.322 1.354 36.165 8.135 43.814 10.343l40.774 7.422z"/>
        <path fill="#FFB600" d="M214.807 32.397a.223.223 0 0 1-.223-.223v-3.223a.223.223 0 1 1 .446 0v3.223c0 .123-.1.223-.223.223"/>
        <path fill="#FFB600" d="M215.763 32.277a.222.222 0 0 1-.145-.054l-.832-.719-.826.68a.223.223 0 0 1-.284-.344l.972-.8a.223.223 0 0 1 .288.004l.973.842a.223.223 0 0 1-.146.391M211.182 32.397a.223.223 0 0 1-.223-.223v-3.879a.223.223 0 0 1 .446 0v3.88c0 .122-.1.222-.223.222"/>
        <path fill="#FFAFA7" d="M221.826 14.985c.143 5.786-4.82 10.602-11.086 10.756-6.265.155-11.673-4.614-11.815-10.4-.16-6.473 4.39-10.524 11.296-10.694 7.305-.18 11.463 4.552 11.605 10.338"/>
        <path fill="#FFAFA7" d="M221.25 29.566c-5.416 1.46-22.431.19-22.19-15.745 5.732-2.378 14.946 1.612 14.946 1.612l5.832-6.008c5.618 6.59-1.523 15.512 1.413 20.14"/>
        <g transform="translate(198.984 1.822)">
            <mask id="b" fill="#fff">
                <use xlink:href="#a"/>
            </mask>
            <path fill="#FE9A7B" d="M19.198 27.295c-2.253-3.858-7.12-5.831-10.602-3.796-3.563 2.081-3.505 7.051-.293 10.52 2.769 2.993 6.927 3.73 9.574 2.027 2.6-1.673 3.275-5.408 1.321-8.751" mask="url(#b)"/>
            <path fill="#FFB600" d="M13.154 30.455a.222.222 0 0 1-.146-.054l-.831-.719-.827.68a.223.223 0 0 1-.283-.344l.972-.8a.223.223 0 0 1 .287.004l.974.841a.223.223 0 0 1-.146.392"/>
            <path fill="#FFAFA7" d="M18.744 5.049C13.76 1.096 9.75 2.73 7.984.279c-.883 1.243-1.25 3.175.174 4.355 1.423 1.18 10.586.415 10.586.415"/>
            <path fill="#FE9A7B" d="M20.542 18.658c.335-1.987 1.714-3.408 2.36-3.299.646.11 1.481 1.91 1.146 3.896-.335 1.987-2.36 3.299-2.36 3.299s-1.481-1.91-1.146-3.896M4.215 19.567c-1.036-1.7-2.823-2.502-3.376-2.165-.552.336-.66 2.292.375 3.992 1.036 1.7 3.376 2.165 3.376 2.165s.66-2.292-.375-3.992"/>
            <path fill="#FFC400" d="M11.1 19.187l-1.836-1.295c-.122-.086-.113-.255.012-.393l1.198-1.323a.442.442 0 0 1 .438-.105l1.637.611c.166.062.25.201.19.329l-.937 1.986a.478.478 0 0 1-.702.19"/>
        </g>
        <g transform="translate(222.094 22.765)">
            <mask id="d" fill="#fff">
                <use xlink:href="#c"/>
            </mask>
            <path fill="#FFAFA7" d="M4.153 6.004c1.112-.168 2.068-1.219 2.131-2.343.03-.544-.15-1.025-.51-1.352-.359-.328-.853-.464-1.392-.383l-.117.018.007-.118c.03-.545-.15-1.025-.51-1.353C3.402.145 2.908.009 2.37.09-.579 1.038 1.454 4.164.002 6.63c2.581-.23 4.15-.626 4.15-.626" mask="url(#d)"/>
        </g>
        <path fill="#FFF" d="M204.728 9.47c2.535.054 4.545 2.256 4.49 4.92-.056 2.664-2.156 4.78-4.691 4.727-2.535-.053-4.545-2.255-4.49-4.92.056-2.663 2.156-4.78 4.691-4.726M215.221 8.85c2.54.053 4.553 2.276 4.496 4.966-.056 2.69-2.16 4.827-4.7 4.774-2.538-.053-4.551-2.276-4.495-4.966.056-2.69 2.16-4.827 4.7-4.774"/>
        <path fill="#300000" d="M203.212 10.485c1.856-.464 3.761.762 4.256 2.738.494 1.976-.61 3.954-2.466 4.418-1.856.465-3.762-.761-4.256-2.737-.494-1.976.61-3.955 2.466-4.419M213.56 10.125c1.742-.436 3.535.733 4.005 2.612.47 1.878-.562 3.754-2.304 4.19-1.743.436-3.536-.734-4.006-2.612-.47-1.879.562-3.755 2.305-4.19"/>
        <path fill="#FFF" d="M201.05 14.606c.233.715 1.021 1.099 1.76.858.74-.24 1.152-1.014.92-1.728-.232-.715-1.02-1.099-1.76-.858-.74.24-1.151 1.014-.92 1.728M211.503 14c.211.65.928.999 1.6.78.674-.219 1.048-.923.837-1.572-.211-.65-.928-1-1.6-.781-.674.219-1.048.923-.837 1.572M204.77 15.638a.672.672 0 0 0 .854.416.672.672 0 0 0 .446-.839.672.672 0 0 0-.853-.416.672.672 0 0 0-.446.839M215.001 14.93c.108.33.473.509.817.397a.643.643 0 0 0 .426-.802.642.642 0 0 0-.816-.398.643.643 0 0 0-.427.802"/>
        <path fill="#B9C88E" d="M249.106 33.763c6.06-7.23 7.767-10.965 4.325-18.165-4.603 4.884-8.472 9.156-4.325 18.165"/>
        <path fill="#6D6458" d="M248.967 33.364s-.824-1.245-1.726-2.433c-.441-.6-.93-1.167-1.306-1.574-.427-.399-.763-.64-.763-.64a.202.202 0 0 0-.3.087.198.198 0 0 0 .013.276l.042.015c-.001.013.244.21.551.635.353.404.75 1.014 1.113 1.643a45.58 45.58 0 0 1 1.415 2.558.57.57 0 0 0 .74.237c.275-.15.405-.477.253-.752.001-.012-.016-.038-.032-.052"/>
        <g transform="translate(230.85 11.339)">
            <mask id="f" fill="#fff">
                <use xlink:href="#e"/>
            </mask>
            <path fill="#B9C88E" d="M14.5 17.693C14.84 8.909 8.483 3.068.501.096c-1.587 7.465 1.587 16.053 14 17.597" mask="url(#f)"/>
        </g>
        <path fill="#6D6458" d="M93.915 27.585s-1.565-.01-4.295-.059c-1.366-.005-3.107.282-5.059.476-1.013.088-1.99.427-3.058.66-1.058.309-2.22.458-3.32.924-1.13.44-2.293.89-3.499 1.347-1.22.457-2.345 1.209-3.56 1.827l-1.857.99c-.565.4-1.152.823-1.736 1.247-1.15.875-2.441 1.588-3.517 2.63-1.117 1.016-2.23 2.042-3.374 3.08-1.074 1.094-2.047 2.307-3.09 3.48-1.066 1.143-1.994 2.436-2.893 3.67-.913 1.243-1.853 2.51-2.772 3.755-.938 1.255-1.839 2.513-2.765 3.769-.934 1.205-1.893 2.409-2.821 3.614-.899 1.233-1.968 2.278-2.947 3.417-.987 1.1-1.946 2.229-3.025 3.17-1.058.97-2.112 1.967-3.115 2.904-1.014.96-2.17 1.697-3.191 2.533a158.48 158.48 0 0 0-3.073 2.344c-1.038.684-2.078 1.293-3.067 1.92-1.978 1.215-3.712 2.439-5.392 3.318-1.672.867-3.135 1.614-4.338 2.248-.14.09-.263.426-.142.674.123.236.517.354.625.303 1.235-.576 2.723-1.313 4.443-2.15 1.725-.826 3.536-1.993 5.578-3.178 1.002-.6 2.078-1.218 3.136-1.902 1.031-.747 2.08-1.53 3.185-2.334 1.05-.82 2.256-1.553 3.295-2.524 1.06-.946 2.143-1.913 3.234-2.917 1.161-.948 2.144-2.062 3.19-3.183 1.015-1.136 2.136-2.2 3.065-3.418.98-1.215 1.97-2.427 2.96-3.64.93-1.23 1.88-2.46 2.816-3.702.957-1.241 1.905-2.47 2.847-3.7.95-1.253 1.873-2.46 2.892-3.57 1.012-1.099 1.938-2.28 2.964-3.314 1.096-.993 2.165-1.949 3.228-2.918 1.035-.997 2.28-1.676 3.354-2.495.566-.412 1.13-.801 1.67-1.192.582-.299 1.164-.61 1.753-.923 1.148-.574 2.219-1.268 3.366-1.693 1.156-.45 2.26-.866 3.312-1.276 1.044-.446 2.146-.563 3.145-.864 1.004-.2 1.953-.556 2.851-.628 1.8-.182 3.325-.488 4.693-.507 2.72.01 4.273.031 4.273.031.632-.02 1.137-.501 1.109-1.128"/>
        <path fill="#6D6458" d="M29.124 74.977s-1.514.107-3.05-.026a16.073 16.073 0 0 1-2.056-.326c-.531-.209-.884-.314-.884-.314l-.037-.016c-.09-.032-.189.022-.227.105-.026.085.022.178.093.22 0 0 .367.157.919.429.571.175 1.335.365 2.108.52 1.556.259 3.138.307 3.138.307a.448.448 0 0 0 .456-.435.46.46 0 0 0-.435-.462l-.025-.002"/>
        <g transform="translate(.932 69.27)">
            <mask id="h" fill="#fff">
                <use xlink:href="#g"/>
            </mask>
            <path fill="#B9C88E" d="M22.438 5.05C16.19-1.17 7.592-.476 0 3.376c4.388 6.233 12.843 9.722 22.438 1.672" mask="url(#h)"/>
        </g>
        <path fill="#6D6458" d="M31.13 74.4s-1.066 1.02-2.057 2.145c-.474.584-.986 1.088-1.268 1.626-.309.46-.506.793-.506.793a.206.206 0 0 0 .052.253c.072.045.168.015.228-.03l.043-.07s.232-.292.541-.702c.283-.45.85-.939 1.36-1.431 1.04-.997 2.195-1.933 2.195-1.933.2-.134.23-.43.08-.63-.167-.165-.444-.214-.638-.055-.02-.002-.023.035-.03.035"/>
        <path fill="#B9C88E" d="M27.778 78.756c-6.779 1.1-11.599 6.539-9.322 14.45 4.845-1.741 10.024-4.703 9.322-14.45"/>
        <path fill="#6D6458" d="M49.411 56.065s-1.445 3.1-2.796 6.247c-.67 1.568-1.35 3.145-1.799 4.344a10.273 10.273 0 0 0-.623 2.119c-.042.132.056.245.18.246.095.023.196-.05.232-.147l.014-.087s.068-.181.185-.505c.055-.326.302-.83.519-1.42a83.93 83.93 0 0 1 2.007-4.226c1.5-3.07 3.084-6.087 3.084-6.087a.567.567 0 0 0-.233-.738c-.28-.15-.595-.035-.774.227 0 0-.01.008.004.027"/>
        <path fill="#B9C88E" d="M44.33 68.436c-7.636 4.369-10.992 13.051-4.707 21.558 5.047-4.286 9.94-10.153 4.708-21.558"/>
        <path fill="#6D6458" d="M47.676 60.833s.27.412.457.836c.24.412.263.864.288.877.01.078.064.13.127.132.096.005.152-.066.159-.14-.04.029.019-.522-.124-1.035a5.803 5.803 0 0 0-.31-.968l-.021-.03c-.062-.171-.272-.247-.436-.175-.16.095-.242.278-.173.436.022.03.019.047.033.067"/>
        <path fill="#B9C88E" d="M48.468 62.335c3.214 1.971 4.568 5.74 1.758 9.315-2.116-1.903-4.148-4.493-1.758-9.315"/>
        <path fill="#6D6458" d="M45.836 64.152s-.592.433-1.252.754c-.64.346-1.365.451-1.353.489l.036.259-.02.015c-.001-.045.809-.052 1.51-.357.75-.218 1.428-.598 1.428-.598l.01-.008c.162-.094.237-.288.142-.458-.1-.158-.278-.212-.461-.125l-.04.029"/>
        <path fill="#B9C88E" d="M43.554 65.351c-2.681 5.099-8.282 7.531-14.005 3.628 2.689-3.423 6.393-6.765 14.005-3.628"/>
    </g>
</svg>
