<svg xmlns="http://www.w3.org/2000/svg" width="28" height="28" viewBox="0 0 28 28">
    <g fill="none" fill-rule="evenodd" transform="translate(.77 .43)">
        <rect width="26.918" height="26.918" fill="#3F619F" rx="4"/>
        <path fill="#FFF" d="M17.4 5.387l-2.1-.003c-2.36 0-3.885 1.564-3.885 3.986v1.838H9.302a.33.33 0 0 0-.33.33v2.664c0 .181.149.33.33.33h2.113v6.72c0 .181.148.33.33.33H14.5a.33.33 0 0 0 .331-.33v-6.72h2.47a.33.33 0 0 0 .33-.33v-2.664a.33.33 0 0 0-.33-.33h-2.47V9.65c0-.749.179-1.13 1.154-1.13H17.4a.33.33 0 0 0 .33-.33V5.718a.33.33 0 0 0-.33-.331"/>
    </g>
</svg>
