<svg xmlns="http://www.w3.org/2000/svg" width="20" height="17" viewBox="0 0 20 17">
    <g fill="none" fill-rule="evenodd" stroke="#FD786B" stroke-linecap="round" stroke-linejoin="round" stroke-width="2">
        <path d="M13.951 8.624c0-1.478-.929-4.263-3.716-4.263-1.858 0-2.787 1.857-2.787 1.857S6.518 4.36 4.66 4.36C1.873 4.36.944 7.146.944 8.624c0 5.022 5.769 7.807 6.504 7.807.735 0 6.503-2.785 6.503-7.807z"/>
        <path d="M13.334 11.453c.613.076 5.7-1.654 6.212-5.834.151-1.23-.337-3.644-2.658-3.929-1.547-.19-2.51 1.261-2.51 1.261s-.583-1.64-2.13-1.83C9.928.834 8.869 3.058 8.718 4.29"/>
    </g>
</svg>
