<?xml version="1.0" encoding="UTF-8"?>
<svg width="24px" height="24px" viewBox="0 0 24 24" version="1.1" xmlns="http://www.w3.org/2000/svg" xmlns:xlink="http://www.w3.org/1999/xlink">
    <!-- Generator: Sketch 49.3 (51167) - http://www.bohemiancoding.com/sketch -->
    <title>Shape Copy 2</title>
    <desc>Created with Sketch.</desc>
    <defs></defs>
    <g id="iOS" stroke="none" stroke-width="1" fill="none" fill-rule="evenodd" stroke-linecap="round" stroke-linejoin="round">
        <path d="M15.8556328,5.9811978 C15.8553181,7.40294304 15.0590338,8.71652984 13.7667325,9.42714276 C12.4744312,10.1377557 10.8824442,10.1374357 9.59045762,9.42630337 C8.29847103,8.71517104 7.50276836,7.40126427 7.5030831,5.97951903 C7.5030831,3.78169136 9.37286503,2 11.6793579,2 C13.9858508,2 15.8556328,3.78169136 15.8556328,5.97951903 L15.8556328,5.9811978 Z M21,22 L3,22 C3.0004672,20.1050717 3.79089051,18.2879317 5.19738583,16.9483299 C6.60388115,15.6087281 8.51123568,14.8563978 10.4998532,14.8568431 L13.5001468,14.8568431 C15.4887643,14.8563978 17.3961189,15.6087281 18.8026142,16.9483299 C20.2091095,18.2879317 20.9995328,20.1050717 21,22 Z" id="Shape-Copy-3" stroke="#DFE2EA" stroke-width="2.57142857"></path>
    </g>
</svg>