<svg xmlns="http://www.w3.org/2000/svg" xmlns:xlink="http://www.w3.org/1999/xlink" width="173" height="67" viewBox="0 0 173 67">
    <defs>
        <path id="a" d="M0 0h38v26H0z"/>
        <path id="c" d="M.155 11.995c-1.24 8.06 5.08 15.94 14.231 16.917C23.553 29.891 30.2 22.525 31 14.965 30.84 6.592 24.88 1.007 16.254.108A19.562 19.562 0 0 0 14.227 0C6.277 0 1.205 5.167.155 11.995"/>
        <path id="e" d="M0 25.216c11.132 9.768 29.28 4.07 31-12.462-7.53-3.876-13.854 2.984-13.854 2.984L4.834 0C-3.894 9.02 4.491 19.21 0 25.216z"/>
        <path id="g" d="M0 0h9v9H0z"/>
        <path id="i" d="M20.141 8.168S7.726 2.743.003 5.976c-.324 21.665 22.601 23.39 29.9 21.406C25.946 21.088 35.567 8.96 27.997 0"/>
    </defs>
    <g fill="none" fill-rule="evenodd">
        <path fill="#F46E53" d="M157.989 48.632a.475.475 0 0 1-.264.336l-11.1 4.994a.427.427 0 0 1-.424-.042.49.49 0 0 1-.201-.4c-.003-2.367.63-4.296 1.829-5.578 1.205-1.288 2.97-1.942 5.244-1.942 1.868 0 3.668.825 4.814 2.206a.505.505 0 0 1 .102.426m7.982 1.52c-.532-2.106-1.564-3.913-3.155-5.524-2.413-2.441-5.444-3.628-9.267-3.628-3.964 0-7.24 1.207-9.74 3.587-2.528 2.36-3.809 5.517-3.809 9.388v.203c0 3.923 1.228 6.976 3.755 9.334 2.568 2.346 5.823 3.488 9.948 3.488 3.853 0 7.22-1.271 10.01-3.778a.582.582 0 0 0 .005-.872l-2.954-2.794a.627.627 0 0 0-.432-.172.59.59 0 0 0-.366.124c-1.7 1.326-3.685 1.998-5.904 1.998-2.633 0-4.791-.814-6.079-2.292a.455.455 0 0 1 .17-.722l13.571-5.669 3.68-1.551a.958.958 0 0 0 .567-1.12M130.928 66h5.473c.33 0 .599-.273.599-.608V50.638c0-3.233-.78-5.877-2.253-7.645-1.493-1.79-3.647-2.7-6.404-2.7-4.065 0-6.807 1.31-8.15 3.89a.458.458 0 0 1-.405.249h-.017a.46.46 0 0 1-.404-.28.709.709 0 0 0-.223-.291.47.47 0 0 1-.082-.084C116.502 40.43 112.73 40 109.73 40c-.67 0-1.312.023-1.878.044l-.117.004c-5.388.197-8.735 4.254-8.735 10.59V65.64c0 .198.16.36.354.36h5.962a.358.358 0 0 0 .354-.36V51.57c0-3.37 1.6-5.38 4.278-5.38.327 0 .75.023 1.122.046.052.003.101.015.147.034 2.18.397 3.428 2.321 3.428 5.3v13.822c0 .335.269.608.599.608h5.473c.33 0 .598-.273.598-.608V51.828c0-1.582.466-3.013 1.312-4.031a4.383 4.383 0 0 1 3.425-1.607c2.679 0 4.278 2.01 4.278 5.38v13.822c0 .335.268.608.598.608M58.989 48.632a.474.474 0 0 1-.264.336l-11.1 4.994a.428.428 0 0 1-.424-.042.49.49 0 0 1-.201-.4c-.003-2.367.63-4.296 1.829-5.578C50.034 46.654 51.799 46 54.073 46c1.868 0 3.668.825 4.814 2.206a.505.505 0 0 1 .102.426m7.982 1.52c-.532-2.106-1.564-3.913-3.155-5.524C61.404 42.187 58.372 41 54.549 41c-3.964 0-7.24 1.207-9.74 3.587C42.282 46.947 41 50.104 41 53.975v.203c0 3.923 1.228 6.976 3.755 9.334C47.323 65.858 50.578 67 54.703 67c3.853 0 7.22-1.271 10.01-3.778a.582.582 0 0 0 .005-.872l-2.954-2.794a.627.627 0 0 0-.432-.172.59.59 0 0 0-.366.124c-1.7 1.326-3.685 1.998-5.904 1.998-2.633 0-4.792-.814-6.08-2.292a.456.456 0 0 1 .171-.722l13.571-5.669 3.68-1.551a.958.958 0 0 0 .567-1.12"/>
        <g transform="translate(0 40)">
            <mask id="b" fill="#fff">
                <use xlink:href="#a"/>
            </mask>
            <path fill="#F46E53" d="M29.148 25.956l.117-.004C34.653 25.755 38 21.698 38 15.362V.36c0-.198-.16-.36-.354-.36h-5.962a.358.358 0 0 0-.354.36v14.07c0 3.37-1.6 5.38-4.278 5.38-.26 0-.596-.014-1.122-.046a.453.453 0 0 1-.147-.034c-2.18-.397-3.428-2.321-3.428-5.3V.608A.604.604 0 0 0 21.756 0h-5.473a.604.604 0 0 0-.598.608v13.564c0 1.582-.466 3.013-1.312 4.031a4.382 4.382 0 0 1-3.425 1.607c-1.337 0-2.44-.516-3.188-1.492-.713-.93-1.09-2.274-1.09-3.888V.608A.604.604 0 0 0 6.072 0H.599A.604.604 0 0 0 0 .608v14.754c0 3.233.78 5.877 2.253 7.645 1.493 1.79 3.648 2.7 6.404 2.7 4.065 0 6.807-1.31 8.15-3.89a.458.458 0 0 1 .405-.25l.018.001a.46.46 0 0 1 .403.28c.05.12.121.212.222.291.031.024.06.052.083.084C20.498 25.57 24.27 26 27.27 26c.67 0 1.312-.024 1.878-.044" mask="url(#b)"/>
        </g>
        <path fill="#F46E53" d="M87.897 59.003C86.557 60.328 84.875 61 82.899 61c-1.909 0-3.556-.672-4.896-1.997C76.672 57.633 76 55.952 76 54c0-1.972.674-3.638 2.003-4.951C79.339 47.672 80.943 47 82.899 47c1.993 0 3.674.69 4.998 2.049C89.292 50.379 90 52.044 90 54c0 1.939-.708 3.622-2.103 5.003M95.402 34h-5.464a.6.6 0 0 0-.598.602v9.977c-.715-2.11-4.497-3.379-8.086-3.379-3.494 0-6.445 1.26-8.768 3.746C70.173 47.423 69 50.503 69 54.1c0 3.582 1.174 6.68 3.49 9.21 2.333 2.446 5.284 3.69 8.764 3.69 3.589 0 7.371-1.269 8.086-3.378v2.315a.6.6 0 0 0 .598.602h5.464a.6.6 0 0 0 .598-.602V34.602a.6.6 0 0 0-.598-.602M99 33.216c11.132 9.767 29.28 4.07 31-12.462-7.53-3.876-13.854 2.984-13.854 2.984L103.834 8c-8.728 9.02-.343 19.21-4.834 25.216"/>
        <path fill="#FFB600" d="M114.5 41c-.276 0-.5-.13-.5-.288v-4.424c0-.159.224-.288.5-.288s.5.13.5.288v4.424c0 .159-.224.288-.5.288"/>
        <path fill="#FFB600" d="M114.72 42a.25.25 0 0 1-.183-.084l-1.042-1.117-1.038 1.057c-.119.121-.295.1-.393-.048a.405.405 0 0 1 .038-.487l1.22-1.242a.24.24 0 0 1 .36.005l1.221 1.308c.117.125.13.344.029.488a.26.26 0 0 1-.212.12M109.5 41c-.276 0-.5-.13-.5-.288v-4.424c0-.159.224-.288.5-.288s.5.13.5.288v4.424c0 .159-.224.288-.5.288"/>
        <path fill="#FFB600" d="M109.72 42a.25.25 0 0 1-.183-.084l-1.043-1.117-1.037 1.057c-.119.121-.295.1-.393-.048a.405.405 0 0 1 .038-.487l1.22-1.242a.24.24 0 0 1 .36.005l1.221 1.308c.117.125.13.344.029.488a.26.26 0 0 1-.212.12M154.5 42c-.276 0-.5-.136-.5-.304v-4.392c0-.168.224-.304.5-.304s.5.136.5.304v4.392c0 .168-.224.304-.5.304"/>
        <path fill="#FFB600" d="M155.72 42a.25.25 0 0 1-.183-.084l-1.043-1.117-1.037 1.057c-.119.121-.295.1-.393-.048a.405.405 0 0 1 .038-.487l1.22-1.242a.24.24 0 0 1 .36.005l1.221 1.308c.117.125.13.344.029.488a.26.26 0 0 1-.212.12M150.5 42c-.276 0-.5-.138-.5-.31v-5.38c0-.172.224-.31.5-.31s.5.138.5.31v5.38c0 .172-.224.31-.5.31"/>
        <path fill="#F46E53" d="M163.996 18.213c.193 7.952-6.524 14.57-15.002 14.782-8.478.212-15.796-6.341-15.989-14.293-.215-8.894 5.942-14.462 15.286-14.695 9.885-.247 15.512 6.255 15.705 14.206"/>
        <path fill="#F46E53" d="M162.902 38.382c-7.298 1.984-30.223.259-29.899-21.406 7.723-3.233 20.138 2.192 20.138 2.192L160.998 11c7.57 8.96-2.051 21.088 1.904 27.382M99.155 15.992c-1.24 8.057 5.079 15.936 14.23 16.913 9.166.979 16.769-5.742 16.613-13.944-.16-8.37-6.12-13.954-14.745-14.853-9.11-.95-14.961 4.495-16.098 11.884"/>
        <g transform="translate(99 4)">
            <mask id="d" fill="#fff">
                <use xlink:href="#c"/>
            </mask>
            <path fill="#300000" d="M30.604 16c-.153 0-.299-.106-.363-.283-.388-1.065-1.012-1.695-1.757-1.773-.681-.071-1.386.327-1.758.992-.12.215-.366.275-.549.132-.182-.143-.232-.433-.111-.649.527-.943 1.526-1.508 2.488-1.407.607.063 1.727.452 2.414 2.335.086.237-.007.512-.207.615a.342.342 0 0 1-.157.038" mask="url(#d)"/>
        </g>
        <g transform="translate(98 8)">
            <mask id="f" fill="#fff">
                <use xlink:href="#e"/>
            </mask>
            <path fill="#FFAA90" d="M-5 29.213c12.732 3.306 12.367-5.018 21.075-8.511 6.506-2.61 16.793 2.393 9.304 9.46C18.435 36.712.453 39 .453 39L-5 29.213z" mask="url(#f)"/>
        </g>
        <g>
            <g transform="translate(164 28)">
                <mask id="h" fill="#fff">
                    <use xlink:href="#g"/>
                </mask>
                <path fill="#F46E53" d="M5.943 8.142c1.592-.23 2.962-1.671 3.052-3.213.044-.747-.215-1.406-.73-1.856-.514-.449-1.222-.635-1.993-.524l-.168.024.01-.162c.043-.747-.216-1.406-.73-1.855C4.87.106 4.161-.08 3.39.032-.831 1.33 2.079 5.618 0 9c3.696-.316 5.943-.858 5.943-.858" mask="url(#h)"/>
            </g>
            <path fill="#FFF" d="M140.643 10.001a6.484 6.484 0 0 1 6.355 6.628 6.516 6.516 0 0 1-6.64 6.37 6.484 6.484 0 0 1-6.356-6.628 6.516 6.516 0 0 1 6.64-6.37M154.644 9.001a6.481 6.481 0 0 1 6.354 6.627 6.519 6.519 0 0 1-6.642 6.37 6.481 6.481 0 0 1-6.354-6.626 6.519 6.519 0 0 1 6.642-6.37"/>
            <path fill="#300000" d="M138.342 11.134c2.402-.632 4.866 1.035 5.505 3.723.64 2.688-.788 5.378-3.19 6.01-2.4.63-4.865-1.036-5.504-3.724-.64-2.688.788-5.378 3.19-6.01M152.329 11.13c2.399-.624 4.868 1.051 5.515 3.74.647 2.69-.774 5.376-3.173 6-2.399.624-4.868-1.051-5.515-3.74-.647-2.69.774-5.376 3.173-6"/>
            <path fill="#FFF" d="M135.092 16.638a1.96 1.96 0 0 0 2.507 1.257c1.053-.352 1.64-1.486 1.309-2.533a1.96 1.96 0 0 0-2.507-1.257c-1.053.352-1.64 1.486-1.309 2.533M150.07 15.978a1.47 1.47 0 0 0 1.879.943 1.53 1.53 0 0 0 .982-1.9 1.47 1.47 0 0 0-1.88-.942 1.53 1.53 0 0 0-.982 1.9M141.046 18.32a.98.98 0 0 0 1.253.627 1.02 1.02 0 0 0 .655-1.266.98.98 0 0 0-1.253-.628 1.02 1.02 0 0 0-.655 1.266M155.046 17.32a.98.98 0 0 0 1.253.627 1.02 1.02 0 0 0 .655-1.266.98.98 0 0 0-1.253-.628 1.02 1.02 0 0 0-.655 1.266"/>
        </g>
        <g transform="translate(133 10)">
            <mask id="j" fill="#fff">
                <use xlink:href="#i"/>
            </mask>
            <path fill="#FFAA90" d="M26.435 27.142c-3.126-5.14-9.876-7.77-14.707-5.058-4.942 2.774-4.861 9.396-.407 14.018 3.841 3.986 9.61 4.968 13.28 2.7 3.609-2.23 4.544-7.206 1.834-11.66" mask="url(#j)"/>
        </g>
        <g>
            <path fill="#FFAA90" d="M161.068 25.59c.462-2.76 2.36-4.734 3.249-4.582.889.153 2.039 2.652 1.578 5.411-.462 2.76-3.25 4.581-3.25 4.581s-2.038-2.652-1.577-5.41M139.2 26.235c-1.421-2.455-3.875-3.612-4.634-3.126-.759.486-.907 3.31.515 5.765 1.422 2.455 4.634 3.126 4.634 3.126s.907-3.31-.514-5.765"/>
            <path fill="#F46E53" d="M90.039 25.913c.161-.637.539-1.122 1.063-1.368.524-.246 1.132-.222 1.712.067l.126.063.035-.139c.161-.636.539-1.122 1.063-1.368.524-.245 1.132-.222 1.712.067 2.992 2.159-.473 5.22.64 8.765-2.852-.971-6.826-3.038-6.351-6.087"/>
            <path fill="#300000" d="M118.586 16c-.214 0-.395-.153-.412-.354-.13-1.537-.953-2.24-1.62-2.559-1.025-.49-2.248-.36-2.927.02a.432.432 0 0 1-.568-.13.37.37 0 0 1 .141-.529c1.038-.58 2.572-.599 3.732-.045 1.208.578 1.942 1.707 2.067 3.182.018.212-.153.397-.38.414a.432.432 0 0 1-.033.001"/>
            <path fill="#FFC400" d="M123.91 22.922l1.932-1.36a.346.346 0 0 0 .1-.479l-1.246-1.901c-.126-.192-.41-.24-.606-.104l-1.932 1.36a.346.346 0 0 0-.101.479l1.247 1.901c.126.192.41.24.606.104M148.686 25.895l-2.565-1.609c-.17-.106-.158-.316.016-.487l1.674-1.643c.137-.134.42-.194.612-.13l2.286.758c.23.077.348.25.264.409l-1.307 2.466c-.175.33-.648.445-.98.236"/>
            <path fill="#FFAA90" d="M106.635 20.723c2.434-1.161 4.689-.82 5.222.292.533 1.112-.424 3.205-2.857 4.366-2.433 1.16-5.628.444-5.955-.163-.327-.606 1.157-3.334 3.59-4.495"/>
            <path fill="#FFB600" d="M150.72 42a.25.25 0 0 1-.183-.084l-1.042-1.117-1.038 1.057c-.119.121-.295.1-.393-.048a.405.405 0 0 1 .038-.487l1.22-1.242a.24.24 0 0 1 .36.005l1.221 1.308c.117.125.13.344.029.488a.26.26 0 0 1-.212.12"/>
            <path fill="#F46E53" d="M110 4.422c7.042-1.647 14.136 2.184 17.963.41.235 2.095-.632 4.674-3.177 5.142C122.241 10.442 110 4.422 110 4.422M159 6.659C152.09 1.14 146.528 3.422 144.081 0c-1.225 1.735-1.733 4.432.24 6.08C146.296 7.728 159 6.66 159 6.66"/>
        </g>
    </g>
</svg>
