<svg xmlns="http://www.w3.org/2000/svg" xmlns:xlink="http://www.w3.org/1999/xlink" width="207" height="146" viewBox="0 0 207 146">
    <defs>
        <path id="a" d="M51.765 20.913S20.012 7.163.26 15.357c-.83 54.911 57.803 59.284 76.467 54.255C66.612 53.659 91.218 22.92 71.858.21"/>
        <path id="c" d="M51.765 20.913S20.012 7.163.26 15.357c-.83 54.911 57.803 59.284 76.467 54.255C66.612 53.659 91.218 22.92 71.858.21"/>
    </defs>
    <g fill="none" fill-rule="evenodd">
        <path fill="#FFB600" d="M47.155 145.43a.768.768 0 0 0 .768-.767v-11.106a.768.768 0 1 0-1.536 0v11.106c0 .424.344.768.768.768"/>
        <path fill="#FFB600" d="M43.86 145.018a.765.765 0 0 0 .503-.187l2.865-2.476 2.849 2.343a.768.768 0 0 0 .975-1.187l-3.35-2.755a.769.769 0 0 0-.99.012l-3.354 2.9a.768.768 0 0 0 .503 1.35M59.648 145.43a.768.768 0 0 0 .768-.767v-13.366a.768.768 0 0 0-1.536 0v13.366c0 .424.344.768.768.768"/>
        <path fill="#FFB6AF" fill-rule="nonzero" d="M76.06 38.154s36.5 7.729 41.641 75.43c0 0-62.768 20.09-107.978-10.284 0 0 7.705-53.264 42.32-59.622l24.016-5.524z"/>
        <path fill="#FD786B" d="M22.968 85.432c-.49 19.939 16.613 36.533 38.202 37.065 21.589.531 40.222-15.901 40.713-35.84.549-22.302-15.13-36.262-38.924-36.847-25.171-.62-39.5 15.683-39.99 35.622"/>
        <path fill="#FD786B" d="M24.952 135.675c18.664 5.03 77.297.656 76.467-54.255-19.751-8.194-51.504 5.556-51.504 5.556L29.822 66.273c-19.361 22.71 5.246 53.45-4.87 69.402M7.738 132.93c-3.832-.578-7.127-4.2-7.345-8.073-.106-1.877.518-3.533 1.756-4.662 1.238-1.128 2.942-1.596 4.798-1.317l.404.061-.023-.408c-.106-1.877.518-3.532 1.756-4.66 1.237-1.13 2.942-1.598 4.798-1.318 10.159 3.265 3.156 14.037 8.159 22.532-8.896-.794-14.303-2.155-14.303-2.155"/>
        <g transform="matrix(-1 0 0 1 101.68 66.063)">
            <mask id="b" fill="#fff">
                <use xlink:href="#a"/>
            </mask>
            <path fill="#FFAA90" d="M66.154 68.065C58.388 54.774 41.622 47.973 29.62 54.986c-12.276 7.173-12.075 24.298-1.01 36.253 9.542 10.31 23.872 12.848 32.991 6.983 8.963-5.766 11.285-18.637 4.554-30.157" mask="url(#b)"/>
        </g>
        <path fill="#300000" d="M36.974 82.293c.466.303 1.094.201 1.438-.248 2.624-3.42 5.488-3.903 7.428-3.706 2.978.302 5.447 2.335 6.347 4.188a1.075 1.075 0 1 0 1.934-.94c-1.376-2.831-4.692-5.046-8.064-5.388-3.512-.356-6.833 1.255-9.351 4.537a1.076 1.076 0 0 0 .268 1.557M72.145 82.293c.465.303 1.093.201 1.437-.248 2.625-3.42 5.488-3.903 7.428-3.706 2.979.302 5.447 2.335 6.347 4.188a1.075 1.075 0 1 0 1.934-.94c-1.376-2.831-4.692-5.046-8.064-5.388-3.511-.356-6.833 1.255-9.351 4.537a1.076 1.076 0 0 0 .269 1.557"/>
        <path fill="#FFAA90" d="M29.057 100.91c-5.042-4.773-11.785-5.826-13.335-4.183-1.549 1.641-.117 8.325 4.925 13.097 5.043 4.772 13.335 4.182 13.335 4.182s.117-8.325-4.925-13.097M88.86 105.515c5.644-3.901 12.393-3.919 13.661-2.085 1.269 1.834-1.131 8.142-6.775 12.042-5.643 3.9-13.66 2.085-13.66 2.085s1.132-8.141 6.775-12.042"/>
        <path fill="#FFC400" d="M64.167 99.171l5.645-5.302c.373-.351.264-.923-.229-1.334l-4.725-3.94c-.385-.321-1.098-.389-1.544-.147l-5.293 2.869c-.535.29-.753.806-.487 1.213l4.146 6.329c.555.846 1.755 1 2.487.312"/>
        <path fill="#FFB600" d="M56.355 145.018a.765.765 0 0 0 .501-.187l2.865-2.476 2.849 2.343a.768.768 0 0 0 .976-1.187l-3.35-2.755a.767.767 0 0 0-.99.012l-3.354 2.9a.768.768 0 0 0 .503 1.35"/>
        <path fill="#FD786B" d="M37.091 57.473c17.175-13.62 30.996-7.988 37.076-16.433 3.044 4.281 4.306 10.938-.598 15.004-4.905 4.067-36.478 1.429-36.478 1.429"/>
        <path fill="#FFB6AF" fill-rule="nonzero" d="M45.891 56.679c-2.204-.903-9.2-4.734-6.374-7.932 2.22-2.513 10.046 1.915 10.095 4.218-.585-2.881-.82-9.688 3.538-8.182 3.069 1.058 3.216 8.911 1.858 11.508 1.395-3.6 9.336-4.714 10.604-1.486 2.202 5.622-6.73 7.517-10.648 6.12 2.902 2.368 7.347 6.351 4.355 9.443-.29.301-3.75.969-4.223.818-1.224-.387-2.545-1.926-3.265-3.463.171 2.737-.482 6.04-2.964 6.213-5.047.355-5.02-9.327-3.593-11.844-2.015 2.666-6.601 3.21-7.861.204-2.158-5.134 4.695-7.296 8.478-5.617z"/>
        <g>
            <path fill="#FFB600" d="M159.463 145.43a.768.768 0 0 1-.768-.767v-11.106a.768.768 0 1 1 1.536 0v11.106a.768.768 0 0 1-.768.768"/>
            <path fill="#FFB600" d="M162.758 145.018a.765.765 0 0 1-.502-.187l-2.865-2.476-2.849 2.343a.768.768 0 0 1-.976-1.187l3.35-2.755a.769.769 0 0 1 .99.012l3.354 2.9a.768.768 0 0 1-.502 1.35M146.97 145.43a.768.768 0 0 1-.768-.767v-13.366a.768.768 0 0 1 1.536 0v13.366a.768.768 0 0 1-.768.768"/>
            <path fill="#FD786B" d="M183.65 85.432c.491 19.939-16.613 36.533-38.201 37.065-21.59.531-40.223-15.901-40.713-35.84-.55-22.302 15.129-36.262 38.924-36.847 25.17-.62 39.5 15.683 39.99 35.622"/>
            <path fill="#FD786B" d="M181.667 135.675c-18.664 5.03-77.298.656-76.468-54.255 19.752-8.194 51.504 5.556 51.504 5.556l20.094-20.703c19.36 22.71-5.246 53.45 4.87 69.402M198.88 132.93c3.833-.578 7.128-4.2 7.346-8.073.105-1.877-.519-3.533-1.756-4.662-1.239-1.128-2.943-1.596-4.799-1.317l-.403.061.023-.408c.105-1.877-.518-3.532-1.756-4.66-1.238-1.13-2.942-1.598-4.799-1.318-10.158 3.265-3.155 14.037-8.158 22.532 8.895-.794 14.303-2.155 14.303-2.155"/>
            <path fill="#FFF" d="M124.733 66.43c8.736.183 15.662 7.772 15.47 16.95-.192 9.18-7.429 16.473-16.164 16.29-8.736-.182-15.662-7.771-15.47-16.95.192-9.18 7.428-16.473 16.164-16.29M160.89 64.291c8.75.183 15.686 7.845 15.492 17.113-.193 9.268-7.444 16.633-16.193 16.45-8.75-.182-15.686-7.844-15.492-17.112.194-9.268 7.444-16.633 16.193-16.45"/>
            <path fill="#300000" d="M119.508 69.926c6.396-1.6 12.961 2.624 14.664 9.433 1.703 6.81-2.1 13.626-8.497 15.226-6.396 1.6-12.961-2.624-14.664-9.433-1.703-6.81 2.101-13.626 8.497-15.226M155.164 68.684c6.004-1.502 12.182 2.528 13.802 9.001 1.619 6.473-1.936 12.937-7.94 14.438-6.004 1.502-12.183-2.528-13.802-9-1.618-6.474 1.937-12.937 7.94-14.44"/>
            <path fill="#FFF" d="M112.061 84.127c.8 2.462 3.515 3.785 6.065 2.957 2.549-.828 3.967-3.495 3.167-5.957-.8-2.462-3.515-3.785-6.064-2.957-2.55.829-3.967 3.496-3.168 5.957M148.077 82.036c.728 2.238 3.197 3.443 5.517 2.69 2.318-.754 3.608-3.18 2.881-5.419-.728-2.24-3.198-3.443-5.516-2.69-2.32.754-3.61 3.18-2.882 5.419M124.878 87.682c.389 1.194 1.706 1.835 2.942 1.433 1.237-.402 1.925-1.696 1.537-2.89-.388-1.194-1.705-1.836-2.941-1.434-1.237.402-1.925 1.697-1.538 2.89M160.132 85.24c.371 1.141 1.63 1.755 2.813 1.37 1.182-.384 1.84-1.621 1.47-2.763-.372-1.142-1.631-1.756-2.814-1.371-1.182.384-1.84 1.622-1.47 2.763"/>
            <g transform="translate(104.939 66.063)">
                <mask id="d" fill="#fff">
                    <use xlink:href="#c"/>
                </mask>
                <path fill="#FFAA90" d="M66.154 68.065C58.388 54.774 41.622 47.973 29.62 54.986c-12.276 7.173-12.075 24.298-1.01 36.253 9.542 10.31 23.872 12.848 32.991 6.983 8.963-5.766 11.285-18.637 4.554-30.157" mask="url(#d)"/>
            </g>
            <path fill="#FFAA90" d="M177.968 100.556c5.439-4.314 12.248-4.776 13.649-3.005 1.4 1.771-.609 8.304-6.048 12.619-5.44 4.314-13.649 3.004-13.649 3.004s.61-8.304 6.048-12.618M116.831 104.928c-6.235-2.862-12.884-1.708-13.815.32-.93 2.026 2.528 7.82 8.763 10.681 6.234 2.862 13.814-.319 13.814-.319s-2.528-7.82-8.762-10.682"/>
            <path fill="#665E5A" fill-rule="nonzero" d="M98.145 40.114h-1.356c.053 6.734 1.172 16.366 4.384 30.135 9.394 40.278-6.466 52.89-6.626 53.013l.844 1.05c.687-.518 16.732-13.156 7.123-54.357-3.214-13.775-4.31-23.287-4.37-29.841z"/>
            <path fill="#FD786B" fill-rule="nonzero" d="M120.368 6.266c-6.378-10.782-18.764-3.974-22.511 1.426-3.747-5.4-16.133-12.208-22.512-1.426C66.985 20.397 86.98 31.9 97.672 37.675c0 0 .125.132.185.1.06.032.184-.1.184-.1 10.693-5.776 30.687-17.277 22.327-31.409z"/>
            <path fill="#FD786B" fill-rule="nonzero" d="M97.672 37.675l-4.526 6.374 10.669.737z"/>
            <path fill="#FFC400" d="M143.188 106.193l-6.328-4.466c-.418-.295-.39-.877.04-1.352l4.131-4.559c.337-.372 1.034-.538 1.509-.361l5.64 2.104c.57.213.859.694.652 1.134l-3.225 6.844c-.431.915-1.599 1.235-2.419.656"/>
            <path fill="#FFB600" d="M150.264 145.018a.765.765 0 0 1-.502-.187l-2.864-2.476-2.85 2.343a.768.768 0 0 1-.975-1.187l3.35-2.755a.767.767 0 0 1 .99.012l3.354 2.9a.768.768 0 0 1-.503 1.35"/>
            <path fill="#FD786B" d="M169.527 57.473c-17.174-13.62-30.995-7.988-37.075-16.433-3.045 4.281-4.307 10.938.598 15.004 4.904 4.067 36.477 1.429 36.477 1.429"/>
            <g fill-rule="nonzero">
                <path fill="#55585E" d="M131.36 48.866l39.264 7.18-.666 3.643-39.263-7.179z"/>
                <path fill="#55585E" d="M143.075 35.005l20.268 3.706-2.932 16.032-20.268-3.706z"/>
                <path fill="#FFB6AF" d="M140.241 50.5l.815-4.454 20.268 3.706-.815 4.454z"/>
            </g>
        </g>
    </g>
</svg>
