<svg xmlns="http://www.w3.org/2000/svg" xmlns:xlink="http://www.w3.org/1999/xlink" width="279" height="108" viewBox="0 0 279 108">
    <defs>
        <path id="a" d="M0 7.293V.114h17.328v7.18z"/>
    </defs>
    <g fill="none" fill-rule="evenodd">
        <path fill="#6D6458" d="M105.464 52.771s-1.208-.007-3.316-.045c-1.055-.004-2.4.217-3.908.367-.782.067-1.537.33-2.362.509-.816.238-1.713.353-2.564.713-.872.339-1.77.685-2.701 1.038-.942.352-1.81.932-2.749 1.41-.47.247-.95.505-1.435.762-.436.308-.889.635-1.34.962-.888.674-1.885 1.224-2.716 2.028-.863.784-1.722 1.575-2.605 2.375-.83.844-1.581 1.78-2.387 2.683-.823.883-1.54 1.88-2.234 2.83-.705.96-1.431 1.937-2.14 2.896-.725.968-1.42 1.938-2.136 2.907-.72.93-1.461 1.857-2.178 2.787-.694.95-1.52 1.756-2.276 2.634-.762.848-1.503 1.72-2.336 2.446-.817.748-1.63 1.515-2.406 2.238-.783.741-1.675 1.31-2.464 1.954-.818.603-1.614 1.218-2.373 1.807-.802.528-1.604.998-2.369 1.481-1.527.937-2.866 1.88-4.163 2.559-1.292.668-2.422 1.244-3.35 1.733-1.87.946-2.926 1.51-2.926 1.51l-.026.007a.373.373 0 0 0-.159.506.357.357 0 0 0 .483.167s1.087-.533 3-1.436c.95-.448 2.103-1.013 3.431-1.66 1.333-.635 2.731-1.535 4.309-2.45.773-.462 1.604-.938 2.421-1.465.796-.577 1.606-1.181 2.46-1.8.81-.634 1.742-1.198 2.544-1.947.819-.73 1.655-1.475 2.498-2.25.896-.73 1.656-1.59 2.463-2.454.784-.876 1.65-1.696 2.367-2.636.756-.937 1.521-1.871 2.286-2.807.718-.948 1.451-1.897 2.175-2.855.738-.956 1.47-1.903 2.198-2.852.734-.967 1.447-1.897 2.233-2.753.782-.848 1.497-1.758 2.289-2.557.847-.764 1.672-1.502 2.493-2.25.799-.768 1.76-1.292 2.59-1.923.438-.319.873-.618 1.29-.92.45-.23.899-.47 1.354-.71.886-.444 1.713-.979 2.6-1.307.892-.347 1.744-.667 2.557-.983.806-.345 1.657-.435 2.429-.667.775-.155 1.508-.429 2.201-.484 1.39-.14 2.568-.376 3.624-.39 2.101.006 3.3.023 3.3.023.488-.015.878-.387.856-.87.012-.47-.366-.84-.832-.86"/>
        <path fill="#6D6458" d="M46.395 94.306s-1.17.083-2.355-.02a12.43 12.43 0 0 1-1.588-.251c-.411-.16-.683-.242-.683-.242l-.029-.013c-.07-.024-.145.018-.175.082-.02.065.017.136.072.17 0 0 .283.12.71.33.44.134 1.03.282 1.627.4 1.202.2 2.424.238 2.424.238a.346.346 0 0 0 .352-.336.354.354 0 0 0-.355-.358"/>
        <g transform="translate(24.623 90.12)">
            <mask id="b" fill="#fff">
                <use xlink:href="#a"/>
            </mask>
            <path fill="#B9C88E" d="M17.328 3.678C12.503-1.117 5.863-.582 0 2.388c3.389 4.807 9.918 7.497 17.328 1.29" mask="url(#b)"/>
        </g>
        <path fill="#6D6458" d="M49.282 92.803s-.824.786-1.59 1.653c-.366.451-.76.84-.98 1.255-.237.355-.39.61-.39.61a.16.16 0 0 0 .04.197c.056.034.13.01.177-.024l.033-.054s.179-.225.418-.542c.218-.347.655-.723 1.05-1.103.803-.769 1.695-1.49 1.695-1.49.154-.104.177-.332.061-.486-.129-.128-.343-.165-.492-.043-.015 0-.017.027-.022.027"/>
        <path fill="#B9C88E" d="M46.693 96.161c-5.235.849-8.958 5.043-7.2 11.143 3.742-1.343 7.741-3.626 7.2-11.143"/>
        <path fill="#6D6458" d="M71.096 74.733s-1.116 2.39-2.16 4.817c-.517 1.21-1.042 2.426-1.388 3.35-.371.906-.481 1.634-.481 1.634-.033.102.043.189.139.19.073.018.15-.039.179-.113l.01-.068s.053-.139.143-.388c.042-.252.234-.641.4-1.095.39-.897.957-2.09 1.55-3.26 1.159-2.367 2.383-4.693 2.383-4.693a.438.438 0 0 0-.18-.57c-.217-.115-.46-.027-.598.176 0 0-.008.005.003.02"/>
        <path fill="#B9C88E" d="M67.173 84.273c-5.898 3.369-8.49 10.064-3.636 16.624 3.898-3.305 7.676-7.83 3.636-16.624"/>
        <path fill="#6D6458" d="M69.756 78.41s.209.318.353.645c.185.318.203.666.223.676.007.06.049.1.097.102.075.004.118-.051.123-.109-.031.023.015-.402-.096-.797-.083-.39-.238-.747-.238-.747l-.017-.023c-.048-.132-.21-.19-.337-.135-.124.074-.187.215-.134.336.017.023.015.037.026.052"/>
        <path fill="#B9C88E" d="M70.367 79.569c2.482 1.52 3.529 4.426 1.358 7.182-1.634-1.467-3.203-3.464-1.358-7.182"/>
        <path fill="#6D6458" d="M68.335 80.97s-.457.333-.967.581c-.494.267-1.054.348-1.045.377l.028.2-.016.011c0-.034.625-.04 1.167-.275.58-.168 1.103-.461 1.103-.461l.008-.006c.124-.073.182-.222.109-.354-.077-.121-.215-.163-.356-.096l-.031.022"/>
        <path fill="#B9C88E" d="M66.573 81.894c-2.07 3.932-6.396 5.808-10.815 2.798 2.076-2.64 4.937-5.217 10.815-2.798"/>
        <text fill="#FD695C" font-family="Jenthill" font-size="48" letter-spacing="-1.158" transform="translate(-.84 -.754)">
            <tspan x="62.522" y="70.613">Meant to Be</tspan>
        </text>
        <g>
            <path fill="#F6A30A" d="M28.209 37.686l-1.616-.563-.335-4.61a.285.285 0 0 0-.305-.263.284.284 0 0 0-.265.304l.34 4.669-.993 1.007a.285.285 0 1 0 .407.4l.745-.756.318 1.06a.286.286 0 0 0 .356.192.285.285 0 0 0 .191-.355l-.296-.987 1.264.44a.285.285 0 0 0 .189-.538M21.1 38.021l-1.453-.902.386-3.416a.285.285 0 1 0-.565-.084l-.394 3.474-1.19.766a.286.286 0 0 0 .31.479l.893-.575.078 1.104c.01.144.127.256.268.265h.037a.286.286 0 0 0 .265-.305l-.073-1.028 1.137.707a.285.285 0 0 0 .302-.485"/>
            <path fill="#FD786B" d="M38.056 7.965c-5.71-10.488-22.484-9.722-27.392-.97-5.848 10.426 2.579 17.413-1.13 24.802C29.882 43.4 46.814 24.173 38.056 7.965"/>
            <path fill="#FF9C97" d="M37.986 26.149c.027-5.603-9.847-6.358-16.32-.884-4.031 3.408-5.033 6.85-9.362 7.933 11.351 5.027 21.27.61 25.682-7.05"/>
            <path fill="#EA6B65" d="M22.549 21.094c-1.077 4.217-12.245 5.342-16.34-5.347 2.725-.591 4.431-2.256 8.97-1.686 3.572.449 8 3.612 7.37 7.033"/>
            <path fill="#F6A30A" d="M32.065 15.467c1.643-.9 3.486.06 3.68.537-.346 1.676-1.456 2.467-1.456 2.467-.776-.833-1.743-1.45-2.224-3.004"/>
            <path fill="#353535" d="M29.348 13.09c-.341-.742-.709-1.43-1.197-1.996a4.512 4.512 0 0 0-1.735-1.278 4.36 4.36 0 0 0-2.123-.301c-.72.085-1.46.334-1.986.964.091-.404.366-.765.697-1.04.338-.27.736-.47 1.157-.584a4.024 4.024 0 0 1 2.58.17 4.123 4.123 0 0 1 1.956 1.68c.442.736.659 1.568.651 2.384M35.706 14.32c.303-.444.612-.848.967-1.146.352-.302.743-.498 1.148-.566a2.034 2.034 0 0 1 1.209.166c.38.183.746.482.936 1a1.587 1.587 0 0 0-.22-.827 1.95 1.95 0 0 0-.542-.598 1.9 1.9 0 0 0-1.438-.335c-.5.082-.975.378-1.331.8-.357.423-.605.95-.729 1.506"/>
            <path fill="#EA6B65" d="M7.344 32.353c-3.947.87-6.634-.585-6.38-2.422.216-1.552 2.499-1.496 3.98.28.948 1.138 1.815 2.12 2.4 2.142M7.758 31.194c-4.16-2.055-5.173-5.455-3.324-7.06 1.563-1.358 3.472.377 3.167 3.203-.196 1.808-.325 3.405.157 3.857"/>
            <path fill="#EA6B65" d="M9.17 30.97c-1.626-1.704-1.516-3.501-.354-3.945.983-.376 1.59.784.951 2.078-.409.828-.749 1.567-.598 1.867"/>
        </g>
    </g>
</svg>
