<svg xmlns="http://www.w3.org/2000/svg" width="146" height="30" viewBox="0 0 146 30">
    <g fill="#FFF" fill-rule="evenodd">
        <path d="M139.6 13.645a.404.404 0 0 1-.236.283l-9.949 4.191a.405.405 0 0 1-.56-.371c-.003-1.987.564-3.605 1.639-4.681 1.08-1.082 2.662-1.63 4.7-1.63 1.675 0 3.288.692 4.315 1.85.086.098.12.231.092.358m6.324 1.278c-.464-1.855-1.365-3.447-2.755-4.866-2.107-2.15-4.754-3.195-8.093-3.195-3.46 0-6.322 1.063-8.504 3.16-2.208 2.078-3.326 4.859-3.326 8.268v.179c0 3.455 1.072 6.144 3.279 8.22 2.242 2.067 5.084 3.073 8.686 3.073 3.365 0 6.305-1.12 8.741-3.328a.515.515 0 0 0 .004-.768l-2.579-2.46a.545.545 0 0 0-.377-.152.512.512 0 0 0-.32.11c-1.483 1.167-3.218 1.759-5.155 1.759-2.299 0-4.184-.717-5.308-2.02a.403.403 0 0 1 .148-.635l11.85-4.992 3.214-1.367a.845.845 0 0 0 .495-.986M115.488 29.128h4.816c.291 0 .527-.236.527-.527V15.818c0-2.801-.686-5.092-1.983-6.624-1.314-1.552-3.21-2.338-5.635-2.338-3.578 0-5.99 1.133-7.172 3.37a.404.404 0 0 1-.357.215h-.015a.404.404 0 0 1-.355-.243.615.615 0 0 0-.196-.252.41.41 0 0 1-.073-.072C102.792 6.973 99.472 6.6 96.833 6.6c-.59 0-1.155.02-1.654.038l-.102.004c-4.742.17-7.687 3.685-7.687 9.175v12.998c0 .172.14.312.312.312h5.246c.172 0 .312-.14.312-.312V16.625c0-2.919 1.407-4.661 3.765-4.661.287 0 .66.02.987.04a.405.405 0 0 1 .129.03c1.92.344 3.017 2.01 3.017 4.591v11.976c0 .29.236.527.527.527h4.816c.29 0 .527-.236.527-.527V16.85c0-1.37.41-2.611 1.154-3.493a3.881 3.881 0 0 1 3.014-1.392c2.358 0 3.765 1.742 3.765 4.661v11.976c0 .29.237.527.527.527M52.228 13.645a.404.404 0 0 1-.237.283l-9.949 4.191a.406.406 0 0 1-.38-.036.403.403 0 0 1-.18-.335c-.003-1.987.564-3.605 1.639-4.681 1.08-1.082 2.662-1.63 4.7-1.63 1.675 0 3.288.692 4.315 1.85.087.098.12.231.092.358m6.324 1.278c-.464-1.855-1.365-3.447-2.755-4.866-2.107-2.15-4.754-3.195-8.092-3.195-3.462 0-6.323 1.063-8.505 3.16-2.208 2.078-3.326 4.859-3.326 8.268v.179c0 3.455 1.072 6.144 3.279 8.22 2.242 2.067 5.084 3.073 8.686 3.073 3.365 0 6.305-1.12 8.741-3.328a.515.515 0 0 0 .004-.768l-2.579-2.46a.545.545 0 0 0-.377-.152.512.512 0 0 0-.32.11c-1.483 1.167-3.218 1.759-5.155 1.759-2.299 0-4.184-.717-5.308-2.02a.404.404 0 0 1 .148-.635l11.85-4.992 3.214-1.367a.845.845 0 0 0 .495-.986M25.652 29.09l.102-.004c4.742-.17 7.688-3.686 7.688-9.175V6.913a.312.312 0 0 0-.312-.312h-5.246a.312.312 0 0 0-.312.312v12.19c0 2.92-1.408 4.662-3.765 4.662-.23 0-.525-.012-.988-.04a.404.404 0 0 1-.129-.03c-1.919-.344-3.017-2.01-3.017-4.591V7.128a.527.527 0 0 0-.527-.527H14.33a.527.527 0 0 0-.527.527V18.88c0 1.37-.41 2.61-1.154 3.492a3.881 3.881 0 0 1-3.014 1.393c-1.177 0-2.147-.447-2.806-1.293-.627-.806-.959-1.97-.959-3.368V7.128a.527.527 0 0 0-.527-.527H.527A.527.527 0 0 0 0 7.128V19.91c0 2.8.686 5.091 1.983 6.623 1.314 1.552 3.21 2.34 5.635 2.34 3.578 0 5.99-1.135 7.172-3.371a.404.404 0 0 1 .357-.215h.016c.155.006.293.1.355.243a.614.614 0 0 0 .196.252c.027.02.051.045.073.072 2.253 2.9 5.572 3.273 8.211 3.273.59 0 1.155-.02 1.654-.039M77.224 22.563c-1.193 1.145-2.69 1.725-4.448 1.725-1.699 0-3.165-.58-4.358-1.725-1.184-1.185-1.782-2.638-1.782-4.325 0-1.704.6-3.144 1.783-4.28 1.189-1.19 2.616-1.77 4.357-1.77 1.774 0 3.27.595 4.448 1.77 1.242 1.15 1.872 2.59 1.872 4.28 0 1.676-.63 3.13-1.872 4.325M84.035.642H79.22a.528.528 0 0 0-.527.526v8.735c-.63-1.847-3.963-2.958-7.126-2.958-3.08 0-5.68 1.103-7.728 3.28-2.038 2.168-3.072 4.864-3.072 8.013 0 3.136 1.035 5.848 3.075 8.062 2.057 2.142 4.658 3.231 7.725 3.231 3.163 0 6.497-1.11 7.126-2.957V28.6c0 .29.237.527.527.527h4.816c.29 0 .527-.236.527-.527V1.168a.527.527 0 0 0-.527-.526"/>
    </g>
</svg>
