<?xml version="1.0" encoding="UTF-8"?>
<svg width="21px" height="14px" viewBox="0 0 21 14" version="1.1" xmlns="http://www.w3.org/2000/svg" xmlns:xlink="http://www.w3.org/1999/xlink">
    <!-- Generator: Sketch 49.3 (51167) - http://www.bohemiancoding.com/sketch -->
    <title>en</title>
    <desc>Created with Sketch.</desc>
    <defs></defs>
    <g id="iOS" stroke="none" stroke-width="1" fill="none" fill-rule="evenodd">
        <g id="en" transform="translate(-10.000000, -13.000000)">
            <rect id="Rectangle-path" x="0.767" y="0.166" width="39" height="39" rx="19.5"></rect>
            <g id="Group" transform="translate(9.607000, 12.656000)" fill-rule="nonzero">
                <path d="M19.162,0.458 L2.158,0.458 C1.331,0.458 0.66,1.128 0.66,1.956 L0.66,12.064 C0.66,12.891 1.33,13.562 2.158,13.562 L19.162,13.562 C19.99,13.562 20.66,12.891 20.66,12.064 L20.66,1.956 C20.66,1.129 19.99,0.458 19.162,0.458 Z" id="Shape" fill="#F5F5F5"></path>
                <g fill="#FF4B55" id="Shape">
                    <path d="M0.743,1.466 L20.578,1.466 C20.3691098,0.862523278 19.8006073,0.45782657 19.162,0.458 L2.158,0.458 C1.502,0.458 0.946,0.879 0.743,1.466 Z M0.66,4.49 L20.66,4.49 L20.66,5.498 L0.66,5.498 L0.66,4.49 Z M0.66,2.474 L20.66,2.474 L20.66,3.482 L0.66,3.482 L0.66,2.474 Z M0.66,7.169 C0.66,7.359 0.815,7.514 1.005,7.514 L20.66,7.514 L20.66,6.506 L0.66,6.506 L0.66,7.169 Z M0.66,10.538 L20.66,10.538 L20.66,11.546 L0.66,11.546 L0.66,10.538 Z M20.578,12.554 L0.743,12.554 C0.946,13.14 1.503,13.561 2.158,13.561 L19.162,13.561 C19.818,13.561 20.375,13.141 20.578,12.554 Z M0.66,8.522 L20.66,8.522 L20.66,9.53 L0.66,9.53 L0.66,8.522 Z"></path>
                </g>
                <path d="M1.005,7.514 L9.625,7.514 C9.816,7.514 9.971,7.359 9.971,7.169 L9.971,0.803 C9.971,0.612461761 9.81653824,0.458 9.626,0.458 L2.158,0.458 C1.331,0.458 0.66,1.128 0.66,1.956 L0.66,7.169 C0.66,7.359 0.815,7.514 1.005,7.514 Z" id="Shape" fill="#41479B"></path>
                <g transform="translate(1.000000, 1.000000)" fill="#F5F5F5" id="Shape">
                    <path d="M0.628,0.25 L0.705,0.478 L0.946,0.48 C0.977,0.48 0.99,0.52 0.966,0.539 L0.771,0.682 L0.844,0.912 C0.848077323,0.925363409 0.843297246,0.939846259 0.832066299,0.94815716 C0.820835351,0.956468061 0.80558779,0.956805663 0.794,0.949 L0.598,0.809 L0.401,0.949 C0.38941221,0.956805663 0.374164649,0.956468061 0.362933701,0.94815716 C0.351702754,0.939846259 0.346922677,0.925363409 0.351,0.912 L0.424,0.682 L0.23,0.539 C0.218949477,0.530363933 0.214564718,0.515686581 0.219067237,0.502404148 C0.223569757,0.489121715 0.235975837,0.480136173 0.25,0.48 L0.49,0.478 L0.567,0.25 C0.577,0.22 0.619,0.22 0.628,0.25 Z M0.628,1.447 L0.705,1.676 L0.946,1.678 C0.977,1.678 0.99,1.718 0.966,1.736 L0.771,1.88 L0.844,2.11 C0.847476181,2.1232103 0.842454034,2.13719682 0.831368469,2.14517843 C0.820282904,2.15316004 0.805425646,2.15348668 0.794,2.146 L0.598,2.006 L0.401,2.146 C0.389574354,2.15348668 0.374717096,2.15316004 0.363631531,2.14517843 C0.352545966,2.13719682 0.347523819,2.1232103 0.351,2.11 L0.424,1.88 L0.23,1.736 C0.219736504,1.72718504 0.215893214,1.71299842 0.22030365,1.70020816 C0.224714087,1.68741789 0.236484669,1.67861536 0.25,1.678 L0.49,1.676 L0.567,1.447 C0.577,1.417 0.619,1.417 0.628,1.447 Z M0.628,2.644 L0.705,2.874 L0.946,2.875 C0.977,2.875 0.99,2.915 0.966,2.934 L0.771,3.077 L0.844,3.307 C0.847476181,3.3202103 0.842454034,3.33419682 0.831368469,3.34217843 C0.820282904,3.35016004 0.805425646,3.35048668 0.794,3.343 L0.598,3.203 L0.401,3.343 C0.389574354,3.35048668 0.374717096,3.35016004 0.363631531,3.34217843 C0.352545966,3.33419682 0.347523819,3.3202103 0.351,3.307 L0.424,3.077 L0.23,2.934 C0.218949477,2.92536393 0.214564718,2.91068658 0.219067237,2.89740415 C0.223569757,2.88412172 0.235975837,2.87513617 0.25,2.875 L0.49,2.873 L0.567,2.644 C0.577,2.614 0.619,2.614 0.628,2.644 Z M0.628,3.842 L0.705,4.071 L0.946,4.073 C0.977,4.073 0.99,4.113 0.966,4.131 L0.771,4.275 L0.844,4.505 C0.847476181,4.5182103 0.842454034,4.53219682 0.831368469,4.54017843 C0.820282904,4.54816004 0.805425646,4.54848668 0.794,4.541 L0.598,4.401 L0.401,4.541 C0.389574354,4.54848668 0.374717096,4.54816004 0.363631531,4.54017843 C0.352545966,4.53219682 0.347523819,4.5182103 0.351,4.505 L0.424,4.275 L0.23,4.131 C0.219736504,4.12218504 0.215893214,4.10799842 0.22030365,4.09520816 C0.224714087,4.08241789 0.236484669,4.07361536 0.25,4.073 L0.49,4.071 L0.567,3.841 C0.577,3.812 0.619,3.812 0.628,3.841 L0.628,3.842 Z M0.628,5.04 L0.705,5.268 L0.946,5.27 C0.977,5.27 0.99,5.31 0.966,5.329 L0.771,5.472 L0.844,5.702 C0.847476181,5.7152103 0.842454034,5.72919682 0.831368469,5.73717843 C0.820282904,5.74516004 0.805425646,5.74548668 0.794,5.738 L0.598,5.598 L0.401,5.738 C0.389574354,5.74548668 0.374717096,5.74516004 0.363631531,5.73717843 C0.352545966,5.72919682 0.347523819,5.7152103 0.351,5.702 L0.424,5.472 L0.23,5.329 C0.218949477,5.32036393 0.214564718,5.30568658 0.219067237,5.29240415 C0.223569757,5.27912172 0.235975837,5.27013617 0.25,5.27 L0.49,5.268 L0.567,5.039 C0.577,5.009 0.619,5.009 0.628,5.039 L0.628,5.04 Z M1.558,0.837 L1.634,1.065 L1.876,1.067 C1.906,1.067 1.92,1.107 1.895,1.126 L1.7,1.269 L1.773,1.499 C1.77707732,1.51236341 1.77229725,1.52684626 1.7610663,1.53515716 C1.74983535,1.54346806 1.73458779,1.54380566 1.723,1.536 L1.527,1.396 L1.331,1.536 C1.31941221,1.54380566 1.30416465,1.54346806 1.2929337,1.53515716 C1.28170275,1.52684626 1.27692268,1.51236341 1.281,1.499 L1.354,1.269 L1.16,1.126 C1.14907415,1.11748186 1.14463201,1.1030463 1.14887869,1.08985924 C1.15312537,1.07667217 1.1651566,1.0675416 1.179,1.067 L1.419,1.065 L1.496,0.837 C1.506,0.807 1.548,0.807 1.558,0.837 Z M1.558,2.034 L1.634,2.263 L1.876,2.265 C1.906,2.265 1.92,2.305 1.895,2.323 L1.7,2.467 L1.773,2.697 C1.77647618,2.7102103 1.77145403,2.72419682 1.76036847,2.73217843 C1.7492829,2.74016004 1.73442565,2.74048668 1.723,2.733 L1.527,2.593 L1.331,2.733 C1.31957435,2.74048668 1.3047171,2.74016004 1.29363153,2.73217843 C1.28254597,2.72419682 1.27752382,2.7102103 1.281,2.697 L1.354,2.467 L1.16,2.323 C1.14983146,2.31431247 1.14591202,2.30034655 1.15007555,2.28763682 C1.15423908,2.27492709 1.16566217,2.26598716 1.179,2.265 L1.419,2.263 L1.496,2.034 C1.506,2.004 1.548,2.004 1.558,2.034 Z M1.558,3.231 L1.634,3.461 L1.876,3.462 C1.906,3.462 1.92,3.502 1.895,3.521 L1.7,3.664 L1.773,3.894 C1.77707732,3.90736341 1.77229725,3.92184626 1.7610663,3.93015716 C1.74983535,3.93846806 1.73458779,3.93880566 1.723,3.931 L1.527,3.791 L1.331,3.931 C1.31941221,3.93880566 1.30416465,3.93846806 1.2929337,3.93015716 C1.28170275,3.92184626 1.27692268,3.90736341 1.281,3.894 L1.354,3.664 L1.16,3.521 C1.14907415,3.51248186 1.14463201,3.4980463 1.14887869,3.48485924 C1.15312537,3.47167217 1.1651566,3.4625416 1.179,3.462 L1.419,3.46 L1.496,3.231 C1.506,3.201 1.548,3.201 1.558,3.231 Z M1.558,4.429 L1.634,4.658 L1.876,4.66 C1.906,4.66 1.92,4.7 1.895,4.718 L1.7,4.862 L1.773,5.092 C1.77647618,5.1052103 1.77145403,5.11919682 1.76036847,5.12717843 C1.7492829,5.13516004 1.73442565,5.13548668 1.723,5.128 L1.527,4.988 L1.331,5.128 C1.31957435,5.13548668 1.3047171,5.13516004 1.29363153,5.12717843 C1.28254597,5.11919682 1.27752382,5.1052103 1.281,5.092 L1.354,4.862 L1.16,4.718 C1.14983146,4.70931247 1.14591202,4.69534655 1.15007555,4.68263682 C1.15423908,4.66992709 1.16566217,4.66098716 1.179,4.66 L1.419,4.658 L1.496,4.428 C1.506,4.399 1.548,4.399 1.558,4.428 L1.558,4.429 Z M2.487,0.25 L2.564,0.478 L2.804,0.48 C2.836,0.48 2.849,0.52 2.824,0.539 L2.63,0.682 L2.703,0.912 C2.70707732,0.925363409 2.70229725,0.939846259 2.6910663,0.94815716 C2.67983535,0.956468061 2.66458779,0.956805663 2.653,0.949 L2.456,0.809 L2.26,0.949 C2.24841221,0.956805663 2.23316465,0.956468061 2.2219337,0.94815716 C2.21070275,0.939846259 2.20592268,0.925363409 2.21,0.912 L2.283,0.682 L2.089,0.539 C2.07807415,0.530481861 2.07363201,0.516046303 2.07787869,0.502859238 C2.08212537,0.489672174 2.0941566,0.480541601 2.108,0.48 L2.349,0.478 L2.426,0.249 C2.436,0.219 2.477,0.219 2.487,0.249 L2.487,0.25 Z M2.487,1.447 L2.564,1.676 L2.804,1.678 C2.836,1.678 2.849,1.718 2.824,1.736 L2.63,1.88 L2.703,2.11 C2.70647618,2.1232103 2.70145403,2.13719682 2.69036847,2.14517843 C2.6792829,2.15316004 2.66442565,2.15348668 2.653,2.146 L2.456,2.006 L2.26,2.146 C2.24857435,2.15348668 2.2337171,2.15316004 2.22263153,2.14517843 C2.21154597,2.13719682 2.20652382,2.1232103 2.21,2.11 L2.283,1.88 L2.089,1.736 C2.07883146,1.72731247 2.07491202,1.71334655 2.07907555,1.70063682 C2.08323908,1.68792709 2.09466217,1.67898716 2.108,1.678 L2.349,1.676 L2.426,1.446 C2.436,1.417 2.477,1.417 2.487,1.446 L2.487,1.447 Z M2.487,2.644 L2.564,2.874 L2.804,2.875 C2.836,2.875 2.849,2.915 2.824,2.934 L2.63,3.077 L2.703,3.307 C2.70647618,3.3202103 2.70145403,3.33419682 2.69036847,3.34217843 C2.6792829,3.35016004 2.66442565,3.35048668 2.653,3.343 L2.456,3.203 L2.26,3.343 C2.24857435,3.35048668 2.2337171,3.35016004 2.22263153,3.34217843 C2.21154597,3.33419682 2.20652382,3.3202103 2.21,3.307 L2.283,3.077 L2.089,2.934 C2.07807415,2.92548186 2.07363201,2.9110463 2.07787869,2.89785924 C2.08212537,2.88467217 2.0941566,2.8755416 2.108,2.875 L2.349,2.873 L2.426,2.644 C2.436,2.614 2.477,2.614 2.487,2.644 Z M2.487,3.842 L2.564,4.071 L2.804,4.073 C2.836,4.073 2.849,4.113 2.824,4.131 L2.63,4.275 L2.703,4.505 C2.70647618,4.5182103 2.70145403,4.53219682 2.69036847,4.54017843 C2.6792829,4.54816004 2.66442565,4.54848668 2.653,4.541 L2.456,4.401 L2.26,4.541 C2.24857435,4.54848668 2.2337171,4.54816004 2.22263153,4.54017843 C2.21154597,4.53219682 2.20652382,4.5182103 2.21,4.505 L2.283,4.275 L2.089,4.131 C2.07883146,4.12231247 2.07491202,4.10834655 2.07907555,4.09563682 C2.08323908,4.08292709 2.09466217,4.07398716 2.108,4.073 L2.349,4.071 L2.426,3.841 C2.436,3.812 2.477,3.812 2.487,3.841 L2.487,3.842 Z M2.487,5.04 L2.564,5.268 L2.804,5.27 C2.836,5.27 2.849,5.31 2.824,5.329 L2.63,5.472 L2.703,5.702 C2.70647618,5.7152103 2.70145403,5.72919682 2.69036847,5.73717843 C2.6792829,5.74516004 2.66442565,5.74548668 2.653,5.738 L2.456,5.598 L2.26,5.738 C2.24857435,5.74548668 2.2337171,5.74516004 2.22263153,5.73717843 C2.21154597,5.72919682 2.20652382,5.7152103 2.21,5.702 L2.283,5.472 L2.089,5.329 C2.07807415,5.32048186 2.07363201,5.3060463 2.07787869,5.29285924 C2.08212537,5.27967217 2.0941566,5.2705416 2.108,5.27 L2.349,5.268 L2.426,5.039 C2.436,5.009 2.477,5.009 2.487,5.039 L2.487,5.04 Z M3.417,0.837 L3.493,1.065 L3.734,1.067 C3.766,1.067 3.779,1.107 3.754,1.126 L3.559,1.269 L3.632,1.499 C3.63607732,1.51236341 3.63129725,1.52684626 3.6200663,1.53515716 C3.60883535,1.54346806 3.59358779,1.54380566 3.582,1.536 L3.386,1.396 L3.19,1.536 C3.17841221,1.54380566 3.16316465,1.54346806 3.1519337,1.53515716 C3.14070275,1.52684626 3.13592268,1.51236341 3.14,1.499 L3.213,1.269 L3.018,1.126 C3.00694948,1.11736393 3.00256472,1.10268658 3.00706724,1.08940415 C3.01156976,1.07612172 3.02397584,1.06713617 3.038,1.067 L3.278,1.065 L3.355,0.837 C3.365,0.807 3.407,0.807 3.417,0.837 Z M3.417,2.034 L3.493,2.263 L3.734,2.265 C3.766,2.265 3.779,2.305 3.754,2.323 L3.559,2.467 L3.632,2.697 C3.63547618,2.7102103 3.63045403,2.72419682 3.61936847,2.73217843 C3.6082829,2.74016004 3.59342565,2.74048668 3.582,2.733 L3.386,2.593 L3.19,2.733 C3.17857435,2.74048668 3.1637171,2.74016004 3.15263153,2.73217843 C3.14154597,2.72419682 3.13652382,2.7102103 3.14,2.697 L3.213,2.467 L3.018,2.323 C3.0077365,2.31418504 3.00389321,2.29999842 3.00830365,2.28720816 C3.01271409,2.27441789 3.02448467,2.26561536 3.038,2.265 L3.278,2.263 L3.355,2.034 C3.365,2.004 3.407,2.004 3.417,2.034 Z M3.417,3.231 L3.493,3.461 L3.734,3.462 C3.766,3.462 3.779,3.502 3.754,3.521 L3.559,3.664 L3.632,3.894 C3.63607732,3.90736341 3.63129725,3.92184626 3.6200663,3.93015716 C3.60883535,3.93846806 3.59358779,3.93880566 3.582,3.931 L3.386,3.791 L3.19,3.931 C3.17841221,3.93880566 3.16316465,3.93846806 3.1519337,3.93015716 C3.14070275,3.92184626 3.13592268,3.90736341 3.14,3.894 L3.213,3.664 L3.018,3.521 C3.00694948,3.51236393 3.00256472,3.49768658 3.00706724,3.48440415 C3.01156976,3.47112172 3.02397584,3.46213617 3.038,3.462 L3.278,3.46 L3.355,3.231 C3.365,3.201 3.407,3.201 3.417,3.231 Z M3.417,4.429 L3.493,4.658 L3.734,4.66 C3.766,4.66 3.779,4.7 3.754,4.718 L3.559,4.862 L3.632,5.092 C3.63547618,5.1052103 3.63045403,5.11919682 3.61936847,5.12717843 C3.6082829,5.13516004 3.59342565,5.13548668 3.582,5.128 L3.386,4.988 L3.19,5.128 C3.17857435,5.13548668 3.1637171,5.13516004 3.15263153,5.12717843 C3.14154597,5.11919682 3.13652382,5.1052103 3.14,5.092 L3.213,4.862 L3.018,4.718 C3.0077365,4.70918504 3.00389321,4.69499842 3.00830365,4.68220816 C3.01271409,4.66941789 3.02448467,4.66061536 3.038,4.66 L3.278,4.658 L3.355,4.428 C3.365,4.399 3.407,4.399 3.417,4.428 L3.417,4.429 Z M4.346,0.25 L4.422,0.478 L4.664,0.48 C4.695,0.48 4.708,0.52 4.683,0.539 L4.489,0.682 L4.562,0.912 C4.56607732,0.925363409 4.56129725,0.939846259 4.5500663,0.94815716 C4.53883535,0.956468061 4.52358779,0.956805663 4.512,0.949 L4.315,0.809 L4.119,0.949 C4.10741221,0.956805663 4.09216465,0.956468061 4.0809337,0.94815716 C4.06970275,0.939846259 4.06492268,0.925363409 4.069,0.912 L4.142,0.682 L3.948,0.539 C3.93707415,0.530481861 3.93263201,0.516046303 3.93687869,0.502859238 C3.94112537,0.489672174 3.9531566,0.480541601 3.967,0.48 L4.208,0.478 L4.284,0.25 C4.294,0.22 4.336,0.22 4.346,0.25 Z M4.346,1.447 L4.422,1.676 L4.664,1.678 C4.695,1.678 4.708,1.718 4.683,1.736 L4.489,1.88 L4.562,2.11 C4.56547618,2.1232103 4.56045403,2.13719682 4.54936847,2.14517843 C4.5382829,2.15316004 4.52342565,2.15348668 4.512,2.146 L4.315,2.006 L4.119,2.146 C4.10757435,2.15348668 4.0927171,2.15316004 4.08163153,2.14517843 C4.07054597,2.13719682 4.06552382,2.1232103 4.069,2.11 L4.142,1.88 L3.948,1.736 C3.93783146,1.72731247 3.93391202,1.71334655 3.93807555,1.70063682 C3.94223908,1.68792709 3.95366217,1.67898716 3.967,1.678 L4.208,1.676 L4.284,1.446 C4.294,1.417 4.336,1.417 4.346,1.446 L4.346,1.447 Z M4.346,2.644 L4.422,2.874 L4.664,2.875 C4.695,2.875 4.708,2.915 4.683,2.934 L4.489,3.077 L4.562,3.307 C4.56547618,3.3202103 4.56045403,3.33419682 4.54936847,3.34217843 C4.5382829,3.35016004 4.52342565,3.35048668 4.512,3.343 L4.315,3.203 L4.119,3.343 C4.10757435,3.35048668 4.0927171,3.35016004 4.08163153,3.34217843 C4.07054597,3.33419682 4.06552382,3.3202103 4.069,3.307 L4.142,3.077 L3.948,2.934 C3.93707415,2.92548186 3.93263201,2.9110463 3.93687869,2.89785924 C3.94112537,2.88467217 3.9531566,2.8755416 3.967,2.875 L4.208,2.873 L4.284,2.644 C4.294,2.614 4.336,2.614 4.346,2.644 Z M4.346,3.842 L4.422,4.071 L4.664,4.073 C4.695,4.073 4.708,4.113 4.683,4.131 L4.489,4.275 L4.562,4.505 C4.56547618,4.5182103 4.56045403,4.53219682 4.54936847,4.54017843 C4.5382829,4.54816004 4.52342565,4.54848668 4.512,4.541 L4.315,4.401 L4.119,4.541 C4.10757435,4.54848668 4.0927171,4.54816004 4.08163153,4.54017843 C4.07054597,4.53219682 4.06552382,4.5182103 4.069,4.505 L4.142,4.275 L3.948,4.131 C3.93783146,4.12231247 3.93391202,4.10834655 3.93807555,4.09563682 C3.94223908,4.08292709 3.95366217,4.07398716 3.967,4.073 L4.208,4.071 L4.284,3.841 C4.294,3.812 4.336,3.812 4.346,3.841 L4.346,3.842 Z M4.346,5.04 L4.422,5.268 L4.664,5.27 C4.695,5.27 4.708,5.31 4.683,5.329 L4.489,5.472 L4.562,5.702 C4.56547618,5.7152103 4.56045403,5.72919682 4.54936847,5.73717843 C4.5382829,5.74516004 4.52342565,5.74548668 4.512,5.738 L4.315,5.598 L4.119,5.738 C4.10757435,5.74548668 4.0927171,5.74516004 4.08163153,5.73717843 C4.07054597,5.72919682 4.06552382,5.7152103 4.069,5.702 L4.142,5.472 L3.948,5.329 C3.93707415,5.32048186 3.93263201,5.3060463 3.93687869,5.29285924 C3.94112537,5.27967217 3.9531566,5.2705416 3.967,5.27 L4.208,5.268 L4.284,5.039 C4.294,5.009 4.336,5.009 4.346,5.039 L4.346,5.04 Z M5.276,0.837 L5.352,1.065 L5.593,1.067 C5.624,1.067 5.637,1.107 5.613,1.126 L5.418,1.269 L5.491,1.499 C5.49507732,1.51236341 5.49029725,1.52684626 5.4790663,1.53515716 C5.46783535,1.54346806 5.45258779,1.54380566 5.441,1.536 L5.245,1.396 L5.048,1.536 C5.03641221,1.54380566 5.02116465,1.54346806 5.0099337,1.53515716 C4.99870275,1.52684626 4.99392268,1.51236341 4.998,1.499 L5.071,1.269 L4.877,1.126 C4.86594948,1.11736393 4.86156472,1.10268658 4.86606724,1.08940415 C4.87056976,1.07612172 4.88297584,1.06713617 4.897,1.067 L5.137,1.065 L5.214,0.837 C5.224,0.807 5.266,0.807 5.276,0.837 Z M5.276,2.034 L5.352,2.263 L5.593,2.265 C5.624,2.265 5.637,2.305 5.613,2.323 L5.418,2.467 L5.491,2.697 C5.49447618,2.7102103 5.48945403,2.72419682 5.47836847,2.73217843 C5.4672829,2.74016004 5.45242565,2.74048668 5.441,2.733 L5.245,2.593 L5.048,2.733 C5.03657435,2.74048668 5.0217171,2.74016004 5.01063153,2.73217843 C4.99954597,2.72419682 4.99452382,2.7102103 4.998,2.697 L5.071,2.467 L4.877,2.323 C4.8667365,2.31418504 4.86289321,2.29999842 4.86730365,2.28720816 C4.87171409,2.27441789 4.88348467,2.26561536 4.897,2.265 L5.137,2.263 L5.214,2.034 C5.224,2.004 5.266,2.004 5.276,2.034 Z M5.276,3.231 L5.352,3.461 L5.593,3.462 C5.624,3.462 5.637,3.502 5.613,3.521 L5.418,3.664 L5.491,3.894 C5.49507732,3.90736341 5.49029725,3.92184626 5.4790663,3.93015716 C5.46783535,3.93846806 5.45258779,3.93880566 5.441,3.931 L5.245,3.791 L5.048,3.931 C5.03641221,3.93880566 5.02116465,3.93846806 5.0099337,3.93015716 C4.99870275,3.92184626 4.99392268,3.90736341 4.998,3.894 L5.071,3.664 L4.877,3.521 C4.86594948,3.51236393 4.86156472,3.49768658 4.86606724,3.48440415 C4.87056976,3.47112172 4.88297584,3.46213617 4.897,3.462 L5.137,3.46 L5.214,3.231 C5.224,3.201 5.266,3.201 5.276,3.231 Z M5.276,4.429 L5.352,4.658 L5.593,4.66 C5.624,4.66 5.637,4.7 5.613,4.718 L5.418,4.862 L5.491,5.092 C5.49447618,5.1052103 5.48945403,5.11919682 5.47836847,5.12717843 C5.4672829,5.13516004 5.45242565,5.13548668 5.441,5.128 L5.245,4.988 L5.048,5.128 C5.03657435,5.13548668 5.0217171,5.13516004 5.01063153,5.12717843 C4.99954597,5.11919682 4.99452382,5.1052103 4.998,5.092 L5.071,4.862 L4.877,4.718 C4.8667365,4.70918504 4.86289321,4.69499842 4.86730365,4.68220816 C4.87171409,4.66941789 4.88348467,4.66061536 4.897,4.66 L5.137,4.658 L5.214,4.428 C5.224,4.399 5.266,4.399 5.276,4.428 L5.276,4.429 Z M6.205,0.25 L6.281,0.478 L6.523,0.48 C6.553,0.48 6.567,0.52 6.542,0.539 L6.348,0.682 L6.42,0.912 C6.42407732,0.925363409 6.41929725,0.939846259 6.4080663,0.94815716 C6.39683535,0.956468061 6.38158779,0.956805663 6.37,0.949 L6.174,0.809 L5.978,0.949 C5.96641221,0.956805663 5.95116465,0.956468061 5.9399337,0.94815716 C5.92870275,0.939846259 5.92392268,0.925363409 5.928,0.912 L6.001,0.682 L5.807,0.539 C5.79607415,0.530481861 5.79163201,0.516046303 5.79587869,0.502859238 C5.80012537,0.489672174 5.8121566,0.480541601 5.826,0.48 L6.067,0.478 L6.143,0.249 C6.153,0.219 6.195,0.219 6.205,0.249 L6.205,0.25 Z M6.205,1.447 L6.281,1.676 L6.523,1.678 C6.553,1.678 6.567,1.718 6.542,1.736 L6.348,1.88 L6.42,2.11 C6.42347618,2.1232103 6.41845403,2.13719682 6.40736847,2.14517843 C6.3962829,2.15316004 6.38142565,2.15348668 6.37,2.146 L6.174,2.006 L5.978,2.146 C5.96657435,2.15348668 5.9517171,2.15316004 5.94063153,2.14517843 C5.92954597,2.13719682 5.92452382,2.1232103 5.928,2.11 L6.001,1.88 L5.807,1.736 C5.79683146,1.72731247 5.79291202,1.71334655 5.79707555,1.70063682 C5.80123908,1.68792709 5.81266217,1.67898716 5.826,1.678 L6.067,1.676 L6.143,1.446 C6.153,1.417 6.195,1.417 6.205,1.446 L6.205,1.447 Z M6.205,2.644 L6.281,2.874 L6.523,2.875 C6.553,2.875 6.567,2.915 6.542,2.934 L6.348,3.077 L6.42,3.307 C6.42347618,3.3202103 6.41845403,3.33419682 6.40736847,3.34217843 C6.3962829,3.35016004 6.38142565,3.35048668 6.37,3.343 L6.174,3.203 L5.978,3.343 C5.96657435,3.35048668 5.9517171,3.35016004 5.94063153,3.34217843 C5.92954597,3.33419682 5.92452382,3.3202103 5.928,3.307 L6.001,3.077 L5.807,2.934 C5.79607415,2.92548186 5.79163201,2.9110463 5.79587869,2.89785924 C5.80012537,2.88467217 5.8121566,2.8755416 5.826,2.875 L6.067,2.873 L6.143,2.644 C6.153,2.614 6.195,2.614 6.205,2.644 Z M6.205,3.842 L6.281,4.071 L6.523,4.073 C6.553,4.073 6.567,4.113 6.542,4.131 L6.348,4.275 L6.42,4.505 C6.42347618,4.5182103 6.41845403,4.53219682 6.40736847,4.54017843 C6.3962829,4.54816004 6.38142565,4.54848668 6.37,4.541 L6.174,4.401 L5.978,4.541 C5.96657435,4.54848668 5.9517171,4.54816004 5.94063153,4.54017843 C5.92954597,4.53219682 5.92452382,4.5182103 5.928,4.505 L6.001,4.275 L5.807,4.131 C5.79683146,4.12231247 5.79291202,4.10834655 5.79707555,4.09563682 C5.80123908,4.08292709 5.81266217,4.07398716 5.826,4.073 L6.067,4.071 L6.143,3.841 C6.153,3.812 6.195,3.812 6.205,3.841 L6.205,3.842 Z M6.205,5.04 L6.281,5.268 L6.523,5.27 C6.553,5.27 6.567,5.31 6.542,5.329 L6.348,5.472 L6.42,5.702 C6.42347618,5.7152103 6.41845403,5.72919682 6.40736847,5.73717843 C6.3962829,5.74516004 6.38142565,5.74548668 6.37,5.738 L6.174,5.598 L5.978,5.738 C5.96657435,5.74548668 5.9517171,5.74516004 5.94063153,5.73717843 C5.92954597,5.72919682 5.92452382,5.7152103 5.928,5.702 L6.001,5.472 L5.807,5.329 C5.79607415,5.32048186 5.79163201,5.3060463 5.79587869,5.29285924 C5.80012537,5.27967217 5.8121566,5.2705416 5.826,5.27 L6.067,5.268 L6.143,5.039 C6.153,5.009 6.195,5.009 6.205,5.039 L6.205,5.04 Z M7.134,0.837 L7.211,1.065 L7.452,1.067 C7.483,1.067 7.496,1.107 7.472,1.126 L7.277,1.269 L7.35,1.499 C7.35407732,1.51236341 7.34929725,1.52684626 7.3380663,1.53515716 C7.32683535,1.54346806 7.31158779,1.54380566 7.3,1.536 L7.104,1.396 L6.907,1.536 C6.89541221,1.54380566 6.88016465,1.54346806 6.8689337,1.53515716 C6.85770275,1.52684626 6.85292268,1.51236341 6.857,1.499 L6.93,1.269 L6.736,1.126 C6.72494948,1.11736393 6.72056472,1.10268658 6.72506724,1.08940415 C6.72956976,1.07612172 6.74197584,1.06713617 6.756,1.067 L6.996,1.065 L7.073,0.837 C7.083,0.807 7.125,0.807 7.134,0.837 Z M7.134,2.034 L7.211,2.263 L7.452,2.265 C7.483,2.265 7.496,2.305 7.472,2.323 L7.277,2.467 L7.35,2.697 C7.35347618,2.7102103 7.34845403,2.72419682 7.33736847,2.73217843 C7.3262829,2.74016004 7.31142565,2.74048668 7.3,2.733 L7.104,2.593 L6.907,2.733 C6.89557435,2.74048668 6.8807171,2.74016004 6.86963153,2.73217843 C6.85854597,2.72419682 6.85352382,2.7102103 6.857,2.697 L6.93,2.467 L6.736,2.323 C6.7257365,2.31418504 6.72189321,2.29999842 6.72630365,2.28720816 C6.73071409,2.27441789 6.74248467,2.26561536 6.756,2.265 L6.996,2.263 L7.073,2.034 C7.083,2.004 7.125,2.004 7.134,2.034 Z M7.134,3.231 L7.211,3.461 L7.452,3.462 C7.483,3.462 7.496,3.502 7.472,3.521 L7.277,3.664 L7.35,3.894 C7.35407732,3.90736341 7.34929725,3.92184626 7.3380663,3.93015716 C7.32683535,3.93846806 7.31158779,3.93880566 7.3,3.931 L7.104,3.791 L6.907,3.931 C6.89541221,3.93880566 6.88016465,3.93846806 6.8689337,3.93015716 C6.85770275,3.92184626 6.85292268,3.90736341 6.857,3.894 L6.93,3.664 L6.736,3.521 C6.72494948,3.51236393 6.72056472,3.49768658 6.72506724,3.48440415 C6.72956976,3.47112172 6.74197584,3.46213617 6.756,3.462 L6.996,3.46 L7.073,3.231 C7.083,3.201 7.125,3.201 7.134,3.231 Z M7.134,4.429 L7.211,4.658 L7.452,4.66 C7.483,4.66 7.496,4.7 7.472,4.718 L7.277,4.862 L7.35,5.092 C7.35347618,5.1052103 7.34845403,5.11919682 7.33736847,5.12717843 C7.3262829,5.13516004 7.31142565,5.13548668 7.3,5.128 L7.104,4.988 L6.907,5.128 C6.89557435,5.13548668 6.8807171,5.13516004 6.86963153,5.12717843 C6.85854597,5.11919682 6.85352382,5.1052103 6.857,5.092 L6.93,4.862 L6.736,4.718 C6.7257365,4.70918504 6.72189321,4.69499842 6.72630365,4.68220816 C6.73071409,4.66941789 6.74248467,4.66061536 6.756,4.66 L6.996,4.658 L7.073,4.428 C7.083,4.399 7.125,4.399 7.134,4.428 L7.134,4.429 Z M8.064,0.25 L8.14,0.478 L8.382,0.48 C8.412,0.48 8.426,0.52 8.401,0.539 L8.206,0.682 L8.279,0.912 C8.28307732,0.925363409 8.27829725,0.939846259 8.2670663,0.94815716 C8.25583535,0.956468061 8.24058779,0.956805663 8.229,0.949 L8.033,0.809 L7.837,0.949 C7.82541221,0.956805663 7.81016465,0.956468061 7.7989337,0.94815716 C7.78770275,0.939846259 7.78292268,0.925363409 7.787,0.912 L7.86,0.682 L7.666,0.539 C7.65507415,0.530481861 7.65063201,0.516046303 7.65487869,0.502859238 C7.65912537,0.489672174 7.6711566,0.480541601 7.685,0.48 L7.925,0.478 L8.002,0.249 C8.012,0.219 8.054,0.219 8.064,0.249 L8.064,0.25 Z M8.064,1.447 L8.14,1.676 L8.382,1.678 C8.412,1.678 8.426,1.718 8.401,1.736 L8.206,1.88 L8.279,2.11 C8.28247618,2.1232103 8.27745403,2.13719682 8.26636847,2.14517843 C8.2552829,2.15316004 8.24042565,2.15348668 8.229,2.146 L8.033,2.006 L7.837,2.146 C7.82557435,2.15348668 7.8107171,2.15316004 7.79963153,2.14517843 C7.78854597,2.13719682 7.78352382,2.1232103 7.787,2.11 L7.86,1.88 L7.666,1.736 C7.65583146,1.72731247 7.65191202,1.71334655 7.65607555,1.70063682 C7.66023908,1.68792709 7.67166217,1.67898716 7.685,1.678 L7.925,1.676 L8.002,1.446 C8.012,1.417 8.054,1.417 8.064,1.446 L8.064,1.447 Z M8.064,2.644 L8.14,2.874 L8.382,2.875 C8.412,2.875 8.426,2.915 8.401,2.934 L8.206,3.077 L8.279,3.307 C8.28247618,3.3202103 8.27745403,3.33419682 8.26636847,3.34217843 C8.2552829,3.35016004 8.24042565,3.35048668 8.229,3.343 L8.033,3.203 L7.837,3.343 C7.82557435,3.35048668 7.8107171,3.35016004 7.79963153,3.34217843 C7.78854597,3.33419682 7.78352382,3.3202103 7.787,3.307 L7.86,3.077 L7.666,2.934 C7.65507415,2.92548186 7.65063201,2.9110463 7.65487869,2.89785924 C7.65912537,2.88467217 7.6711566,2.8755416 7.685,2.875 L7.925,2.873 L8.002,2.644 C8.012,2.614 8.054,2.614 8.064,2.644 Z M8.064,3.842 L8.14,4.071 L8.382,4.073 C8.412,4.073 8.426,4.113 8.401,4.131 L8.206,4.275 L8.279,4.505 C8.28247618,4.5182103 8.27745403,4.53219682 8.26636847,4.54017843 C8.2552829,4.54816004 8.24042565,4.54848668 8.229,4.541 L8.033,4.401 L7.837,4.541 C7.82557435,4.54848668 7.8107171,4.54816004 7.79963153,4.54017843 C7.78854597,4.53219682 7.78352382,4.5182103 7.787,4.505 L7.86,4.275 L7.666,4.131 C7.65583146,4.12231247 7.65191202,4.10834655 7.65607555,4.09563682 C7.66023908,4.08292709 7.67166217,4.07398716 7.685,4.073 L7.925,4.071 L8.002,3.841 C8.012,3.812 8.054,3.812 8.064,3.841 L8.064,3.842 Z M8.064,5.04 L8.14,5.268 L8.382,5.27 C8.412,5.27 8.426,5.31 8.401,5.329 L8.206,5.472 L8.279,5.702 C8.28247618,5.7152103 8.27745403,5.72919682 8.26636847,5.73717843 C8.2552829,5.74516004 8.24042565,5.74548668 8.229,5.738 L8.033,5.598 L7.837,5.738 C7.82557435,5.74548668 7.8107171,5.74516004 7.79963153,5.73717843 C7.78854597,5.72919682 7.78352382,5.7152103 7.787,5.702 L7.86,5.472 L7.666,5.329 C7.65507415,5.32048186 7.65063201,5.3060463 7.65487869,5.29285924 C7.65912537,5.27967217 7.6711566,5.2705416 7.685,5.27 L7.925,5.268 L8.002,5.039 C8.012,5.009 8.054,5.009 8.064,5.039 L8.064,5.04 Z"></path>
                </g>
            </g>
        </g>
    </g>
</svg>