<svg xmlns="http://www.w3.org/2000/svg" width="40" height="40" viewBox="0 0 40 40">
    <g fill="#FD786B" fill-rule="evenodd">
        <path fill-rule="nonzero" stroke="#FD786B" stroke-width=".4" d="M26.29 17.644c-1.98 0-3.59 1.61-3.59 3.59v7.152a2.889 2.889 0 0 1-2.886 2.886 2.89 2.89 0 0 1-2.855-2.47h2.532l.797-12.36a5.827 5.827 0 0 0 1.714-4.131 5.852 5.852 0 0 0-5.846-5.845 5.852 5.852 0 0 0-5.845 5.845c0 1.612.656 3.073 1.714 4.131l.797 12.36h2.583a4.435 4.435 0 0 0 4.409 4.014 4.435 4.435 0 0 0 4.43-4.43v-7.152c0-1.128.917-2.046 2.045-2.046s2.046.918 2.046 2.046v3.996h1.544v-3.996c0-1.98-1.61-3.59-3.59-3.59zM16.155 8.01a4.308 4.308 0 0 1 4.077 2.933H12.08a4.308 4.308 0 0 1 4.077-2.933zm-4.297 4.477h8.594a4.306 4.306 0 0 1-4.297 4.125 4.306 4.306 0 0 1-4.297-4.125zm2.41 14.77l-.623-9.668a5.81 5.81 0 0 0 2.51.567 5.81 5.81 0 0 0 2.51-.567l-.623 9.668H14.27z"/>
        <path stroke="#FD786B" d="M26.322 17.782a3.561 3.561 0 0 0-3.557 3.556v7.088a2.863 2.863 0 0 1-2.86 2.86 2.864 2.864 0 0 1-2.83-2.448h-1.54a4.395 4.395 0 0 0 4.37 3.978c2.42 0 4.39-1.97 4.39-4.39v-7.088a2.03 2.03 0 0 1 2.027-2.027 2.03 2.03 0 0 1 2.027 2.027v3.96h1.53v-3.96a3.56 3.56 0 0 0-3.557-3.556z"/>
        <path d="M14.481 27.925h3.333v1.111h-3.333z"/>
    </g>
</svg>
