<svg xmlns="http://www.w3.org/2000/svg" width="40" height="40" viewBox="0 0 40 40">
    <g fill="none" fill-rule="nonzero">
        <path fill="#FD786B" d="M16.336 12.136l2.081-1.102v10.475a.822.822 0 1 0 1.644 0V11.001l2.079 1.128c.29.157.652.056.82-.228.274-.468.618-1.226.618-2.08 0-.856-.344-1.614-.619-2.082a.612.612 0 0 0-.82-.228l-2.86 1.552-2.943-1.56a.612.612 0 0 0-.813.23c-.276.468-.623 1.229-.623 2.087 0 .859.347 1.62.623 2.087a.612.612 0 0 0 .813.23z"/>
        <path stroke="#FD786B" stroke-width="2" d="M29.171 11.185l-3.126-1.105a.694.694 0 0 0-.895.447l-5.321 17.06a.52.52 0 0 1-.994 0L13.51 10.52a.695.695 0 0 0-.886-.45L9.32 11.19c-.46.156-.769.588-.769 1.074v17.638c0 .626.508 1.134 1.134 1.134h19.108c.626 0 1.134-.508 1.134-1.134V12.254c0-.48-.303-.909-.756-1.069z"/>
    </g>
</svg>
