<svg xmlns="http://www.w3.org/2000/svg" width="40" height="40" viewBox="0 0 40 40">
    <g fill="none" fill-rule="evenodd">
        <path fill="#FD786B" d="M14.563 12.344c2.198-.215 3.632.103 4.3.953.668.85.915 1.155.74.911 1.388-1.519 2.413-2.14 3.075-1.864.662.275 1.293.489 1.892.64l-1.134 5.438-4.428.206h-3.323l-1.504-5.824.382-.46z"/>
        <path fill="#7F8493" fill-rule="nonzero" stroke="#FD786B" d="M23.633 19.11c.22-.276.483-.72.738-1.358.491-1.228.789-2.818.81-4.81.878-.833 1.554-1.698 1.554-2.292 0-1.337-.961-2.143-3.008-2.446a.522.522 0 0 0-.097-.015 15.497 15.497 0 0 0-2.063-.122.517.517 0 0 1-.517-.517V6.517A.517.517 0 0 0 20.533 6h-2.066a.517.517 0 0 0-.517.517V7.55a.517.517 0 0 1-.516.517 15.292 15.292 0 0 0-2.161.137c-2.047.303-3.008 1.11-3.008 2.446 0 .594.676 1.46 1.554 2.292.021 1.992.32 3.582.81 4.81.255.637.518 1.082.738 1.358h8.266zm2.069-8.46c0 .172-.516.83-1.105 1.417l-.054-.026-.067-.034a3.197 3.197 0 0 0-.09-.041l-.068-.03-.096-.037-.065-.025c-.035-.013-.07-.024-.105-.035l-.06-.02-.072-.02.158-2.498c1.16.245 1.624.708 1.624 1.349zm-6.719-3.1v-.517h1.034v.517c0 .856.694 1.55 1.55 1.55.559 0 1.052.02 1.484.056l-.158 2.51h-.008a3.93 3.93 0 0 0-.637.06l-.076.014-.104.022c-.025.006-.05.01-.074.017l-.11.028-.067.018a4.381 4.381 0 0 0-.126.039l-.05.016c-.058.019-.117.04-.175.062l-.033.013a4.522 4.522 0 0 0-.14.057l-.062.028a4.452 4.452 0 0 0-.11.05l-.069.035-.1.052c-.025.012-.048.026-.072.039a4.604 4.604 0 0 0-.096.055l-.072.043a5.045 5.045 0 0 0-.415.286 4.435 4.435 0 0 0-.157.126l-.066.057a4.76 4.76 0 0 0-.087.078l-.063.058-.089.086-.057.058-.095.1-.046.051a4.992 4.992 0 0 0-.137.159 5.13 5.13 0 0 0-.137-.159l-.047-.05c-.03-.034-.062-.069-.094-.101l-.058-.058-.088-.086c-.02-.02-.042-.039-.063-.058a5.001 5.001 0 0 0-.087-.078l-.067-.057a4.833 4.833 0 0 0-.571-.412l-.072-.044a4.608 4.608 0 0 0-.096-.054l-.072-.04a4.655 4.655 0 0 0-.1-.051l-.07-.035-.11-.05c-.02-.01-.04-.02-.06-.028a4.47 4.47 0 0 0-.141-.057l-.033-.013a4.337 4.337 0 0 0-.175-.063l-.05-.015a4.21 4.21 0 0 0-.126-.039l-.068-.018c-.036-.01-.073-.02-.11-.028l-.073-.017a4.207 4.207 0 0 0-.104-.022l-.077-.013a3.93 3.93 0 0 0-.636-.06h-.008l-.159-2.51c.433-.038.926-.057 1.485-.057a1.55 1.55 0 0 0 1.55-1.55zm-5.685 3.1c0-.641.463-1.104 1.624-1.35l.158 2.499-.073.02-.059.02c-.035.01-.07.022-.105.035-.022.007-.043.016-.065.025l-.096.037-.067.03-.09.041c-.023.01-.046.022-.068.034l-.054.026c-.589-.587-1.105-1.245-1.105-1.417zM14.852 13l.014-.008c.017-.01.036-.018.054-.027l.07-.035.057-.026.072-.03.059-.022a2.517 2.517 0 0 1 .409-.111h.004a.513.513 0 0 0 .207-.03h.008a2.875 2.875 0 0 1 .144-.01l.065-.003h.082l.064.001.084.005.063.004c.03.002.059.006.088.009l.06.007.096.015.053.008c.042.008.085.017.127.027l.02.004c.05.012.1.025.15.04.015.003.03.009.045.013.034.01.068.02.102.032l.058.021.09.033.06.026.085.035.063.03.082.04c.022.01.043.022.064.033l.08.043.063.037a3.4 3.4 0 0 1 .487.344 3.92 3.92 0 0 1 .19.168l.069.068.056.056.068.074.053.059.067.08c.017.02.034.039.05.06l.068.087.045.06.072.102.036.052c.035.053.07.107.103.162.2.333.683.333.884 0 .034-.055.068-.11.103-.162l.036-.052.072-.103.045-.059.068-.088.05-.06.067-.08.053-.058.068-.074.056-.056.07-.068.058-.054a3.81 3.81 0 0 1 .54-.411l.078-.047a3.461 3.461 0 0 1 .143-.08l.064-.034a3.24 3.24 0 0 1 .081-.039l.064-.03.084-.035.062-.026.09-.033.057-.02.102-.033.046-.014.148-.039.02-.004.128-.027.053-.008.096-.015.06-.007.087-.01.064-.003.083-.005H22.984l.065.002.08.004.065.006h.008a.515.515 0 0 0 .206.03h.005a2.741 2.741 0 0 1 .336.085l.073.026.059.022.071.03.057.025.071.036.054.027.014.008c-.026 1.834-.3 3.275-.736 4.368a5.188 5.188 0 0 1-.542 1.031h-1.82a1.04 1.04 0 0 0-1.04-1.033h-1.02a1.04 1.04 0 0 0-1.04 1.033h-1.82a5.184 5.184 0 0 1-.541-1.032c-.438-1.091-.711-2.532-.737-4.367z"/>
        <path stroke="#FD786B" stroke-linecap="round" stroke-linejoin="round" stroke-width="2" d="M30.218 32.522c0-7.698-4.738-13.938-10.582-13.938-5.845 0-10.582 6.24-10.582 13.938h21.164z"/>
        <path stroke="#FD786B" stroke-linecap="round" stroke-width="2" d="M18.701 18.584c-3.216 0-5.824 4.294-5.824 9.59M20.193 18.584c3.216 0 5.824 4.294 5.824 9.59"/>
    </g>
</svg>
