<svg xmlns="http://www.w3.org/2000/svg" width="40" height="40" viewBox="0 0 40 40">
    <g fill="none" fill-rule="evenodd" stroke="#FD786B" stroke-linecap="round" stroke-linejoin="round">
        <path stroke-width="2.5" d="M30.293 18.163c0 8.658-8.664 13.853-10.397 13.853-1.732 0-10.396-5.195-10.396-13.853 0-5.736 4.656-10.39 10.396-10.39 5.74 0 10.397 4.654 10.397 10.39z"/>
        <path stroke-width="2.4" d="M23.474 17.73c0-.813-.511-2.345-2.045-2.345-1.022 0-1.533 1.021-1.533 1.021s-.51-1.021-1.533-1.021c-1.533 0-2.044 1.532-2.044 2.345 0 2.762 3.173 4.295 3.577 4.295.405 0 3.578-1.533 3.578-4.295z"/>
    </g>
</svg>
