<svg xmlns="http://www.w3.org/2000/svg" width="40" height="40" viewBox="0 0 40 40">
    <g fill="#FD786B" fill-rule="nonzero" stroke="#FD786B" stroke-width=".5">
        <path d="M31.458 17.455a1.489 1.489 0 0 0-1.21-1.02l-5.693-.827-2.545-5.159a1.489 1.489 0 0 0-1.344-.834c-.574 0-1.089.32-1.343.835l-2.546 5.158-5.693.827a1.489 1.489 0 0 0-1.209 1.02 1.488 1.488 0 0 0 .38 1.535l4.119 4.015-.973 5.67a1.489 1.489 0 0 0 .596 1.465 1.492 1.492 0 0 0 1.578.114l5.091-2.677 5.092 2.677a1.488 1.488 0 0 0 1.578-.114c.464-.337.693-.899.596-1.465l-.973-5.67 4.12-4.015c.41-.4.556-.99.379-1.535zm-5.782 4.4c-.353.345-.514.84-.431 1.326l.916 5.343L21.363 26a1.498 1.498 0 0 0-1.394 0l-4.797 2.523.916-5.343a1.498 1.498 0 0 0-.431-1.325l-3.882-3.784 5.365-.78c.488-.07.91-.377 1.127-.819l2.4-4.86 2.398 4.86c.218.442.64.749 1.128.82l5.364.78-3.881 3.783zM30.684 10.504h-.787v-.787a.86.86 0 0 0-1.72 0v.787h-.786a.86.86 0 0 0 0 1.72h.787v.787a.86.86 0 0 0 1.719 0v-.788h.787a.86.86 0 0 0 0-1.719z"/>
        <path d="M16.396 12.271a1.016 1.016 0 0 0-.033-.165.947.947 0 0 0-.108-.227.845.845 0 0 0-.8-.379.832.832 0 0 0-.319.098.832.832 0 0 0-.39.43.947.947 0 0 0-.048.16 1.016 1.016 0 0 0-.017.168 1.049 1.049 0 0 0 .017.168 1.114 1.114 0 0 0 .049.16.926.926 0 0 0 .129.217.87.87 0 0 0 .665.315.823.823 0 0 0 .249-.038.943.943 0 0 0 .155-.064.926.926 0 0 0 .14-.094.83.83 0 0 0 .25-.336.947.947 0 0 0 .049-.16 1.016 1.016 0 0 0 .016-.168.857.857 0 0 0-.004-.085zM13.428 13.687a1.04 1.04 0 0 0-.033-.165 1.004 1.004 0 0 0-.065-.155.905.905 0 0 0-.15-.203.854.854 0 0 0-.44-.235.832.832 0 0 0-.497.05.757.757 0 0 0-.148.078.93.93 0 0 0-.187.17.746.746 0 0 0-.093.14.965.965 0 0 0-.086.237 1.04 1.04 0 0 0-.016.168 1.036 1.036 0 0 0 .016.168.96.96 0 0 0 .05.16.915.915 0 0 0 .185.28 1.225 1.225 0 0 0 .131.107.837.837 0 0 0 .228.107.687.687 0 0 0 .25.038.841.841 0 0 0 .328-.066 1.047 1.047 0 0 0 .149-.08 1.135 1.135 0 0 0 .13-.106.989.989 0 0 0 .107-.131.842.842 0 0 0 .128-.31 1.016 1.016 0 0 0 .017-.167.857.857 0 0 0-.004-.085zM31.496 22.774a1.04 1.04 0 0 0-.033-.165.817.817 0 0 0-.107-.228.917.917 0 0 0-.17-.187.845.845 0 0 0-.295-.158 1.01 1.01 0 0 0-.165-.033.925.925 0 0 0-.253.013 1.016 1.016 0 0 0-.161.049.905.905 0 0 0-.336.249.917.917 0 0 0-.158.295.963.963 0 0 0-.032.165.842.842 0 0 0 .19.63.971.971 0 0 0 .12.12.938.938 0 0 0 .216.128 1.004 1.004 0 0 0 .161.05 1.012 1.012 0 0 0 .168.016.838.838 0 0 0 .477-.145.929.929 0 0 0 .188-.17.917.917 0 0 0 .157-.294.963.963 0 0 0 .033-.165.84.84 0 0 0 0-.17zM33.351 25.866a1.01 1.01 0 0 0-.033-.165.982.982 0 0 0-.107-.228.81.81 0 0 0-.238-.237.72.72 0 0 0-.148-.08.934.934 0 0 0-.244-.061.932.932 0 0 0-.253.012.94.94 0 0 0-.237.086.716.716 0 0 0-.14.093.973.973 0 0 0-.12.12.822.822 0 0 0-.129.216.849.849 0 0 0 .08.805.831.831 0 0 0 .465.346.935.935 0 0 0 .249.037.84.84 0 0 0 .329-.066.914.914 0 0 0 .279-.186.832.832 0 0 0 .214-.358.919.919 0 0 0 .037-.25.858.858 0 0 0-.004-.084zM31.57 29.728l-.722-1.624a.86.86 0 0 0-1.571.699l.722 1.623a.86.86 0 1 0 1.571-.698zM24.563 9.716a.819.819 0 0 0-.062-.244.793.793 0 0 0-.129-.217.744.744 0 0 0-.12-.12.843.843 0 0 0-.46-.19.834.834 0 0 0-.414.061.914.914 0 0 0-.278.187.84.84 0 0 0-.252.607.842.842 0 0 0 .066.329.89.89 0 0 0 .248.336.845.845 0 0 0 .216.129.828.828 0 0 0 .33.066.84.84 0 0 0 .477-.145.823.823 0 0 0 .237-.238.948.948 0 0 0 .08-.148.849.849 0 0 0 .061-.413zM10.9 27.697h-.788v-.787a.86.86 0 0 0-1.72 0v.787h-.786a.86.86 0 0 0 0 1.72h.787v.786a.86.86 0 0 0 1.72 0v-.787h.786a.86.86 0 0 0 0-1.719zM12.013 23.47a.816.816 0 0 0-.062-.245.793.793 0 0 0-.129-.217.845.845 0 0 0-.415-.276.686.686 0 0 0-.165-.034.834.834 0 0 0-.414.062.914.914 0 0 0-.278.186.725.725 0 0 0-.107.13.814.814 0 0 0-.107.228.677.677 0 0 0-.034.165.83.83 0 0 0 .098.49.872.872 0 0 0 .28.31.83.83 0 0 0 .393.14.829.829 0 0 0 .334-.033.817.817 0 0 0 .228-.108.81.81 0 0 0 .237-.237.948.948 0 0 0 .08-.149.849.849 0 0 0 .061-.413z"/>
    </g>
</svg>
