<svg xmlns="http://www.w3.org/2000/svg" width="40" height="40" viewBox="0 0 40 40">
    <g fill="#FD786B" fill-rule="evenodd" transform="translate(6 7)">
        <path fill-rule="nonzero" stroke="#FD786B" stroke-width=".4" d="M28.44 5.02c-.54-.81-1.378-1.237-2.425-1.237h-5.446a3.027 3.027 0 0 0-2.116-1.84L11.15.122 11.143.12a3.031 3.031 0 0 0-.923-.076.862.862 0 0 0-.424.06c-.15.032-.297.076-.442.13L4.921 1.833l-.017.006a3.058 3.058 0 0 0-1.878 2.197h-.72A2.308 2.308 0 0 0 0 6.341v2.441a2.309 2.309 0 0 0 2.306 2.306h.719c.215 1 .93 1.85 1.912 2.214l1.782.66v9.928a3.701 3.701 0 0 0 3.697 3.697 3.701 3.701 0 0 0 3.698-3.697v-3.358a2.883 2.883 0 0 0 0-4.09v-2.136l4.364-1.091a3.031 3.031 0 0 0 2.105-1.875h5.432c1.047 0 1.886-.427 2.426-1.236.43-.645.648-1.5.648-2.542 0-1.043-.218-1.898-.648-2.543zM2.958 9.381h-.651c-.331 0-.6-.269-.6-.6v-2.44c0-.332.269-.601.6-.601h.65v3.641zm2.573 2.32a1.337 1.337 0 0 1-.868-1.247V4.673c0-.545.34-1.042.846-1.24l3.764-1.355V13.09L5.53 11.703zm2.895 2.893l.943.35c.145.053.292.095.44.126a.85.85 0 0 0 .409.056 3.008 3.008 0 0 0 .944-.083l1.247-.312v.883a2.895 2.895 0 0 0-3.228 2.871 2.895 2.895 0 0 0 3.228 2.872v.795H8.425v-7.558zm3.983 9.295a1.994 1.994 0 0 1-1.992 1.991 1.994 1.994 0 0 1-1.991-1.991v-.031h3.983v.03zm-.337-4.217a1.187 1.187 0 0 1-1.186-1.187c0-.654.532-1.186 1.186-1.186.654 0 1.186.532 1.186 1.186 0 .654-.532 1.187-1.186 1.187zm7.001-9.404a1.33 1.33 0 0 1-1.008 1.291l-6.907 1.726V1.882l6.888 1.716.007.002c.6.144 1.02.676 1.02 1.294v5.375zm6.943-.634h-5.237V5.489h5.237c.338 0 1.368 0 1.368 2.073s-1.03 2.073-1.368 2.073z"/>
        <rect width="3.313" height="3.313" x="10.39" y="16.756" rx="1.657"/>
    </g>
</svg>
