<svg xmlns="http://www.w3.org/2000/svg" width="40" height="40" viewBox="0 0 40 40">
    <g fill="none" fill-rule="evenodd" stroke="#FD786B" transform="translate(6 9)">
        <circle cx="8.128" cy="15" r="8" stroke-width="2.5"/>
        <path fill="#FD786B" fill-rule="nonzero" stroke-linecap="round" stroke-linejoin="round" d="M22.625 1.998a.15.15 0 0 0-.001-.013V1.98a.149.149 0 0 0-.005-.023l-.001-.005a.158.158 0 0 0-.01-.024l-.003-.005-.003-.004-.79-1.265-.003-.004-.002-.003a.146.146 0 0 0-.007-.01l-.003-.002a.151.151 0 0 0-.006-.007l-.003-.003A.145.145 0 0 0 21.78.62l-.003-.003a.147.147 0 0 0-.008-.006L21.765.61a.149.149 0 0 0-.025-.013l-.002-.001a.146.146 0 0 0-.011-.004h-.003a.146.146 0 0 0-.012-.003h-.004l-.01-.002h-3.194a.14.14 0 0 0-.039.005h-.002a.15.15 0 0 0-.012.004h-.001a.15.15 0 0 0-.026.014l-.002.001a.147.147 0 0 0-.009.006L18.41.62a.145.145 0 0 0-.009.007L18.4.63a.146.146 0 0 0-.007.007l-.002.003a.15.15 0 0 0-.007.01c-.001 0-.002 0-.002.002l-.003.004-.79 1.265-.003.004-.003.005a.142.142 0 0 0-.01.024l-.002.005a.148.148 0 0 0-.004.023v.004l-.001.013V2.018l.002.008.001.005a.15.15 0 0 0 .008.025l.002.005a.144.144 0 0 0 .01.019l.003.004a.145.145 0 0 0 .006.008l.002.002 2.38 2.845.002.002.002.003a.148.148 0 0 0 .007.007l.002.002a.154.154 0 0 0 .009.008l.002.001.001.001.002.001a.143.143 0 0 0 .007.006l.004.002a.127.127 0 0 0 .008.005l.004.002.003.001h.001a.144.144 0 0 0 .008.004h.001l.003.001.003.002.005.001.004.001.005.002h.003l.005.001.007.001h.005l.012.001h.016l.002-.001a.146.146 0 0 0 .012-.002h.003l.005-.002h.004l.005-.002.003-.002h.004a.148.148 0 0 0 .008-.004l.002-.001.003-.001.003-.002a.16.16 0 0 0 .009-.005l.003-.002a.148.148 0 0 0 .008-.006h.001l.002-.002.002-.002a.147.147 0 0 0 .008-.006v-.001l.003-.002a.143.143 0 0 0 .006-.007l.002-.003.002-.002 2.38-2.844.003-.003a.145.145 0 0 0 .005-.008l.003-.004a.15.15 0 0 0 .01-.02l.003-.004a.154.154 0 0 0 .007-.025l.001-.005.002-.009v-.004V2v-.002zM21.47.882l-.326.841-.726-.841h1.052zm-.608.968h-1.535l.768-.89.767.89zm-1.09-.968l-.726.841-.326-.841h1.051zm-1.3.181l.305.787h-.797l.492-.787zm-.442 1.084h.862l.74 1.915-1.602-1.915zm2.065 2.287l-.885-2.287h1.77l-.885 2.287zm.462-.372l.74-1.915h.862l-1.602 1.915zm.856-2.212l.304-.787.492.787h-.796z"/>
        <circle cx="20.095" cy="15" r="8" stroke-width="2.5"/>
    </g>
</svg>
