<svg xmlns="http://www.w3.org/2000/svg" width="40" height="40" viewBox="0 0 40 40">
    <g fill="none" fill-rule="evenodd" stroke="#FD786B" transform="translate(4 7.31)">
        <rect width="20.879" height="15.694" x="1.325" y="8.213" stroke-width="2.5" rx="4"/>
        <g fill="#FD786B" stroke-linecap="round" stroke-linejoin="round" stroke-width="2">
            <path d="M13.066 13.842a1.586 1.586 0 1 1-3.172 0 1.586 1.586 0 0 1 3.172 0zM15.02 20.226H8.183a2.847 2.847 0 0 1 2.848-2.846h1.139a2.847 2.847 0 0 1 2.848 2.846z"/>
        </g>
        <path stroke-width="2.5" d="M8.622 6.387l15.22 15.337a2.515 2.515 0 0 0 2.779-1.84l2.76-10.3a2.515 2.515 0 0 0-1.778-3.08l-15.31-4.102a2.515 2.515 0 0 0-3.08 1.778l-.59 2.207z"/>
    </g>
</svg>
