<svg xmlns="http://www.w3.org/2000/svg" width="40" height="40" viewBox="0 0 40 40">
    <g fill="#FD786B" fill-rule="evenodd">
        <path d="M18.982 23.292a3.413 3.413 0 0 0-4.114.542 3.412 3.412 0 0 0 0 4.819l4.363 4.363a.852.852 0 0 0 1.205 0l4.363-4.363a3.412 3.412 0 0 0 0-4.82 3.413 3.413 0 0 0-4.113-.54h-1.704z"/>
        <path fill-rule="nonzero" stroke="#FD786B" stroke-width=".5" d="M31.762 7a.852.852 0 0 0-.852.852v.5c0 6.107-4.969 11.075-11.076 11.075-6.108 0-11.076-4.968-11.076-11.076v-.499a.852.852 0 0 0-1.704 0v.5c0 6.853 5.343 12.32 11.928 12.75v2.19a3.413 3.413 0 0 0-4.114.542 3.412 3.412 0 0 0 0 4.819l4.363 4.363a.852.852 0 0 0 1.205 0l4.363-4.363a3.412 3.412 0 0 0 0-4.82 3.413 3.413 0 0 0-4.113-.54v-2.19c6.588-.431 11.928-5.902 11.928-12.752v-.499A.852.852 0 0 0 31.762 7zM21.185 25.039a1.706 1.706 0 0 1 2.41 0 1.706 1.706 0 0 1 0 2.409l-3.761 3.76-3.761-3.76a1.706 1.706 0 0 1 0-2.41 1.698 1.698 0 0 1 1.205-.498c.436 0 .872.166 1.204.498l.75.75a.854.854 0 0 0 1.204 0l.749-.75z"/>
    </g>
</svg>
