<svg xmlns="http://www.w3.org/2000/svg" xmlns:xlink="http://www.w3.org/1999/xlink" width="40" height="40" viewBox="0 0 40 40">
    <defs>
        <rect id="a" width="6.4" height="7.68" x="25.6" y="10.882" rx="3.2"/>
        <rect id="b" width="6.4" height="7.68" y="10.877" rx="3.2"/>
    </defs>
    <g fill="none" fill-rule="evenodd">
        <path stroke="#FD786B" stroke-linecap="round" stroke-linejoin="round" stroke-width="2.5" d="M28.96 20.264c0 4.945-4.012 8.954-8.96 8.954-4.948 0-8.96-4.01-8.96-8.954 0-4.946 4.012-8.955 8.96-8.955 4.948 0 8.96 4.01 8.96 8.955z"/>
        <path stroke="#FD786B" stroke-width="2.5" d="M32.8 20.264c0-7.07-5.73-12.8-12.8-12.8s-12.8 5.73-12.8 12.8"/>
        <g transform="translate(4 6.824)">
            <use fill="#FD786B" xlink:href="#a"/>
            <rect width="5.4" height="6.68" x="26.1" y="11.382" stroke="#FD786B" rx="2.7"/>
        </g>
        <g transform="translate(4 6.824)">
            <use fill="#FD786B" xlink:href="#b"/>
            <rect width="5.4" height="6.68" x=".5" y="11.377" stroke="#FD786B" rx="2.7"/>
        </g>
        <path fill="#FD786B" stroke="#FD786B" stroke-linecap="round" stroke-linejoin="round" stroke-width="2" d="M23.84 22.822S22.56 25.38 20 25.38c-2.56 0-3.84-2.558-3.84-2.558h7.68z"/>
        <path fill="#FD786B" d="M18.72 17.705a1.28 1.28 0 1 1-2.56-.002 1.28 1.28 0 0 1 2.56.002M23.84 17.705a1.28 1.28 0 1 1-2.56-.002 1.28 1.28 0 0 1 2.56.002"/>
    </g>
</svg>
