<?xml version="1.0" encoding="UTF-8"?>
<svg width="23px" height="21px" viewBox="0 0 23 21" version="1.1" xmlns="http://www.w3.org/2000/svg" xmlns:xlink="http://www.w3.org/1999/xlink">
    <!-- Generator: Sketch 49.3 (51167) - http://www.bohemiancoding.com/sketch -->
    <title>ic-bus-alert</title>
    <desc>Created with Sketch.</desc>
    <defs></defs>
    <g id="iOS" stroke="none" stroke-width="1" fill="none" fill-rule="evenodd">
        <g id="ic-bus-alert" transform="translate(-10.000000, -10.000000)">
            <rect id="Rectangle-path" x="0.5" y="0.509" width="39" height="39" rx="19.5"></rect>
            <g id="Group" transform="translate(11.500000, 10.861000)">
                <g transform="translate(0.000000, 0.223000)">
                    <path d="M13.6,15.146 L3.4,15.146 C2.93,15.146 2.55,14.684 2.55,14.114 L2.55,1.728 C2.55,1.158 2.93,0.696 3.4,0.696 L13.6,0.696 C14.07,0.696 14.45,1.159 14.45,1.728 L14.45,14.114 C14.45,14.684 14.07,15.146 13.6,15.146 Z M14.45,3.398 C15.373,3.248 15.968,3.329 16.235,3.641 C16.501,3.953 16.607,5.011 16.551,6.812 L14.45,3.398 Z M2.55,3.398 C1.627,3.248 1.032,3.329 0.765,3.641 C0.5,3.953 0.393,5.011 0.45,6.812 L2.55,3.398 Z" id="Shape" stroke="#8994B0" stroke-width="2" stroke-linecap="round" stroke-linejoin="round"></path>
                    <path d="M3.825,2.975 L13.175,2.975 M3.825,10.475 L13.175,10.475" id="Shape" stroke="#8994B0" stroke-width="2" stroke-linecap="square"></path>
                    <rect id="Rectangle-path" fill="#FD786B" fill-rule="nonzero" x="4.25" y="11.9" width="1.7" height="1.7" rx="0.85"></rect>
                    <rect id="Rectangle-path" fill="#FD786B" fill-rule="nonzero" x="11.05" y="11.9" width="1.7" height="1.7" rx="0.85"></rect>
                    <g id="a-link" transform="translate(2.000000, 15.000000)" fill="#8994B0" fill-rule="nonzero">
                        <rect id="a" x="0.125" y="0.3" width="3.4" height="2.55" rx="1.275"></rect>
                    </g>
                    <rect id="Rectangle-path" stroke="#8994B0" x="2.625" y="15.8" width="2.4" height="1.55" rx="0.775"></rect>
                    <g transform="translate(11.000000, 15.000000)">
                        <g id="b-link" fill="#8994B0" fill-rule="nonzero">
                            <rect id="b" x="0.475" y="0.3" width="3.4" height="2.55" rx="1.275"></rect>
                        </g>
                        <rect id="Rectangle-path" stroke="#8994B0" x="0.975" y="0.8" width="2.4" height="1.55" rx="0.775"></rect>
                    </g>
                </g>
                <circle id="Oval" fill="#FFFFFF" fill-rule="nonzero" cx="15" cy="13.572" r="6.5"></circle>
                <g stroke-linecap="round" stroke-linejoin="round" transform="translate(11.000000, 9.000000)" id="Shape" stroke="#FD786B" stroke-width="1.7">
                    <path d="M5.08,7.494 C5.08,8.12636604 4.56736604,8.639 3.935,8.639 C3.30263396,8.639 2.79,8.12636604 2.79,7.494 L5.08,7.494 Z M1.645,2.916 C1.645,1.65126792 2.67026792,0.626 3.935,0.626 C5.19973208,0.626 6.225,1.65126792 6.225,2.916 L6.225,4.633 L7.335,6.58 C7.429,6.768 7.334,6.921 7.124,6.921 L0.747,6.921 C0.537,6.921 0.442,6.768 0.537,6.58 L1.645,4.633 L1.645,2.916 Z"></path>
                </g>
            </g>
        </g>
    </g>
</svg>