<svg xmlns="http://www.w3.org/2000/svg" width="19" height="20" viewBox="0 0 19 20">
    <g fill="none" fill-rule="evenodd" stroke="#FFF" stroke-linejoin="round">
        <path stroke-width="1.3" d="M15.133 9.848l.546.254c-.006.041-.01.085-.018.13a8.455 8.455 0 0 1-.601 1.937 8.477 8.477 0 0 1-1.098 1.709c-.029.033-.05.05-.076.081l-.49-.247-.053-.024a.81.81 0 0 0-1.078.392l-.373.8a.81.81 0 0 0 .398 1.08l.216.099a1.89 1.89 0 0 0 1.025.039c1.233-.288 2.117-1.22 3.049-3.219 1.288-2.762.557-4.333.523-4.4a2.055 2.055 0 0 0-.705-.766l-.214-.102A.81.81 0 0 0 15.1 8l-.359.769a.81.81 0 0 0 .392 1.078z"/>
        <g stroke-linecap="round" stroke-width="1.5">
            <path d="M10.19 5.874a2.2 2.2 0 1 1-4.398 0 2.2 2.2 0 0 1 4.398 0zM9.298 14.725H3.42a3.947 3.947 0 0 1 3.949-3.946h1.58c.723 0 1.4.194 1.983.534"/>
        </g>
    </g>
</svg>
