<svg xmlns="http://www.w3.org/2000/svg" width="40" height="40" viewBox="0 0 40 40">
    <g fill="#FD786B" fill-rule="nonzero" stroke="#FD786B">
        <path stroke-width=".5" d="M29.254 15.653a.624.624 0 0 0-.832-.295l-.023.011a.624.624 0 1 0 .528 1.13l.032-.015a.624.624 0 0 0 .295-.831z"/>
        <path stroke-width=".7" d="M35.916 27.616a.624.624 0 0 0-.852-.228l-1.11.641-2.604-4.51a5.199 5.199 0 0 0 1.92-2.837 5.202 5.202 0 0 0-.521-3.972l-4.172-7.365a.624.624 0 0 0-.855-.233l-7.69 4.44-7.692-4.44a.623.623 0 0 0-.855.233l-4.17 7.363a5.205 5.205 0 0 0-.523 3.974 5.2 5.2 0 0 0 1.92 2.837l-2.604 4.51-1.11-.641a.624.624 0 1 0-.624 1.08l3.301 1.906a.621.621 0 0 0 .852-.228.624.624 0 0 0-.228-.852l-1.11-.641 2.604-4.51a5.248 5.248 0 0 0 6.601-2.202l3.637-6.42 3.64 6.425a5.243 5.243 0 0 0 6.599 2.197l2.604 4.51-1.11.64a.624.624 0 1 0 .623 1.081l3.301-1.906a.624.624 0 0 0 .228-.852zm-20.605-6.294a3.966 3.966 0 0 1-2.424 1.86 3.965 3.965 0 0 1-3.03-.399 3.997 3.997 0 0 1-1.46-5.453c0-.002 0-.003.002-.005l1.125-1.987c1.196 1.241 2.522 1.535 3.619 1.777.188.041.366.08.542.124a.624.624 0 0 0 .297-1.212c-.19-.047-.383-.09-.57-.13-1.152-.255-2.243-.496-3.24-1.704l2.089-3.686 6.915 3.993-3.865 6.822zm14.894 1.461c-.924.533-2 .675-3.03.399a3.963 3.963 0 0 1-2.421-1.856l-.84-1.482c.018-.53.182-1.005.5-1.446.571-.795 1.325-1.018 2.25-1.227a.624.624 0 0 0-.275-1.217c-1.104.25-2.163.568-2.988 1.715-.144.2-.266.407-.367.62l-2.147-3.79 6.914-3.992 3.865 6.823a3.997 3.997 0 0 1-1.461 5.453z"/>
        <path stroke-width=".5" d="M30.64 17.922a.624.624 0 0 0-1.08.624c.207.36.263.781.155 1.183a1.55 1.55 0 0 1-.727.947.624.624 0 1 0 .624 1.08 2.79 2.79 0 0 0 1.308-1.704 2.789 2.789 0 0 0-.28-2.13zM16.207 17.14l-.017-.017a.624.624 0 1 0-.866.9l.012.01a.622.622 0 0 0 .882-.01.624.624 0 0 0-.01-.883zM11.074 20.676a1.55 1.55 0 0 1-.727-.947 1.55 1.55 0 0 1 .156-1.183.624.624 0 1 0-1.08-.624 2.789 2.789 0 0 0-.28 2.13c.193.724.658 1.33 1.307 1.705a.621.621 0 0 0 .852-.229.624.624 0 0 0-.228-.852z"/>
    </g>
</svg>
