<svg xmlns="http://www.w3.org/2000/svg" width="20" height="18" viewBox="0 0 20 18">
    <g fill="none" fill-rule="evenodd" stroke="#FD786B" stroke-linecap="round" stroke-linejoin="round" stroke-width="2">
        <path d="M8.802 16.468l-6.45-1.173c-.323 0-.585-.403-.585-.9V3.602c0-.496.262-.899.585-.899l6.45-.9c.324 0 .585.404.585.9v12.866c0 .496-.261.9-.585.9zM3.967 7.474l2.97 2.968M6.937 7.474l-2.97 2.968"/>
        <g>
            <path d="M17.325 14.825h-7.1c-.391 0-.71-.34-.71-.76V4.931c0-.42.319-.761.71-.761h7.1c.392 0 .71.34.71.76v9.133c0 .42-.318.761-.71.761z"/>
        </g>
    </g>
</svg>
