<svg xmlns="http://www.w3.org/2000/svg" width="40" height="40" viewBox="0 0 40 40">
    <g fill="#FD786B" fill-rule="evenodd">
        <path d="M17.136 8.539l5.313.31v4.737l-2.823 1.393-1.958-.67-1.305-4.835z"/>
        <path fill-rule="nonzero" stroke="#FD786B" stroke-width=".4" d="M29.054 22.133h-2.809v-4.285c.936-.376 1.835-1.23 2.143-1.54.339-.344.803-1.088.919-3.576a27.824 27.824 0 0 0 0-2.429.81.81 0 0 0-1.085-.72c-.038.014-.78.284-1.651.67-.318-.399-.55-.661-.564-.676a.81.81 0 0 0-1.212-.001 18.38 18.38 0 0 0-.558.669 27.79 27.79 0 0 0-.645-.276c.02-.983-.02-1.763-.021-1.802a.81.81 0 0 0-1.085-.72c-.038.013-.78.283-1.65.67-.319-.4-.551-.662-.565-.677a.81.81 0 0 0-1.211-.001 18.38 18.38 0 0 0-.558.669 28.334 28.334 0 0 0-1.633-.662.81.81 0 0 0-1.084.72c-.002.04-.041.815-.021 1.793-.212.087-.445.185-.69.294-.318-.399-.55-.662-.563-.677a.81.81 0 0 0-1.212 0 18.38 18.38 0 0 0-.558.669 28.334 28.334 0 0 0-1.632-.662.81.81 0 0 0-1.085.72 27.845 27.845 0 0 0 0 2.429c.115 2.488.58 3.232.918 3.575.313.317 1.236 1.195 2.187 1.56v4.266h-2.784a.81.81 0 0 0-.81.81v3.207c0 .447.362.81.81.81h.704l1.183 4.732a.81.81 0 0 0 .786.613h13.364a.81.81 0 0 0 .785-.613l1.183-4.732h.704a.81.81 0 0 0 .81-.81v-3.207a.81.81 0 0 0-.81-.81zm-8.545 0v-6.421c.458-.184.905-.481 1.28-.774.192.804.444 1.161.65 1.37.312.316 1.236 1.194 2.186 1.56v4.265H20.51zm4.9-5.721c-.28 0-1.116-.533-1.818-1.243-.003-.003-.287-.326-.416-1.921.124-.37.236-.87.313-1.563.21.092.429.19.647.295a.81.81 0 0 0 .997-.246l.268-.35c.088.112.18.232.275.36a.81.81 0 0 0 .999.245c.357-.172.719-.33 1.039-.464 0 .339-.006.726-.024 1.125-.098 2.116-.45 2.515-.453 2.519-.704.711-1.545 1.243-1.827 1.243zm-5.735-2.137c-.28 0-1.117-.532-1.818-1.243-.004-.004-.356-.403-.454-2.52a24.298 24.298 0 0 1-.024-1.124c.315.132.67.287 1.021.455a.81.81 0 0 0 .998-.245c.092-.124.183-.241.268-.35.087.111.18.231.275.358a.81.81 0 0 0 .998.246c.358-.171.72-.33 1.04-.464 0 .339-.006.727-.025 1.125-.097 2.116-.45 2.516-.453 2.519-.703.711-1.544 1.243-1.826 1.243zm-5.761 2.137c-.28 0-1.116-.533-1.818-1.243-.003-.004-.356-.403-.453-2.52a24.298 24.298 0 0 1-.024-1.124c.314.132.669.287 1.02.455a.81.81 0 0 0 .998-.246l.268-.35c.088.112.18.232.275.36a.81.81 0 0 0 .999.245c.232-.112.465-.217.689-.314.072.66.176 1.147.293 1.512-.126 1.649-.418 1.979-.42 1.982-.704.711-1.545 1.243-1.827 1.243zm.836 1.437c.936-.377 1.835-1.23 2.143-1.542.207-.21.46-.57.653-1.385.391.308.864.624 1.345.809v6.402h-4.141v-4.284zm-3.594 5.904h17.09v1.587h-17.09v-1.587zm14.594 6.933h-12.1l-.93-3.726H26.68l-.932 3.726z"/>
    </g>
</svg>
