<svg xmlns="http://www.w3.org/2000/svg" width="40" height="40" viewBox="0 0 40 40">
    <g fill="#FD786B" fill-rule="nonzero" stroke="#FD786B" stroke-width=".6">
        <path d="M27.28 14.36h-.65v-.815a.651.651 0 0 0 0-1.302v-1.466a.651.651 0 0 0-.652-.65h-3.256a.651.651 0 0 0-.651.65v1.466a.651.651 0 0 0 0 1.302v.814h-.651a.651.651 0 0 0-.652.651v17.91c0 1.376 1.93 1.864 3.582 1.864 1.653 0 3.582-.488 3.582-1.865V15.01a.651.651 0 0 0-.651-.65zm-3.907-2.931h1.954v.814h-1.954v-.814zm0 2.116h1.954v.814h-1.954v-.814zm.977 19.937c-1.468 0-2.226-.404-2.28-.563V15.662h4.56v17.255c-.054.16-.812.565-2.28.565zM17.512 20.22h-2.279v-6.154h1.302a.651.651 0 0 0 0-1.302h-1.302v-.389h.977a.651.651 0 0 0 0-1.302h-.977v-.389h.651a.651.651 0 0 0 0-1.302h-.651v-.389h.326a.651.651 0 0 0 0-1.302h-.326v-.389a.651.651 0 1 0 0-1.302h-1.302a.651.651 0 1 0 0 1.302v.389h-.326a.651.651 0 0 0 0 1.302h.326v.389h-.652a.651.651 0 0 0 0 1.302h.652v.389h-.977a.651.651 0 0 0 0 1.302h.977v.389h-1.303a.651.651 0 0 0 0 1.302h1.303v6.154h-2.28a.651.651 0 0 0-.651.652v12.047c0 1.377 1.93 1.865 3.582 1.865s3.582-.488 3.582-1.865V20.872a.651.651 0 0 0-.652-.652zm-2.93 13.262c-1.468 0-2.226-.404-2.28-.563V21.523h4.56v11.394c-.055.16-.812.565-2.28.565z"/>
        <path d="M15.233 14.066h1.302a.651.651 0 0 0 0-1.302h-1.302v-.389h.977a.651.651 0 0 0 0-1.302h-.977v-.389h.651a.651.651 0 0 0 0-1.302h-.651v-.389h.326a.651.651 0 0 0 0-1.302h-.326v-.389a.651.651 0 1 0 0-1.302h-1.302a.651.651 0 1 0 0 1.302v.389h-.326a.651.651 0 0 0 0 1.302h.326v.389h-.652a.651.651 0 0 0 0 1.302h.652v.389h-.977a.651.651 0 0 0 0 1.302h.977v.389h-1.303a.651.651 0 0 0 0 1.302h2.605z"/>
    </g>
</svg>
