<svg xmlns="http://www.w3.org/2000/svg" width="20" height="20" viewBox="0 0 20 20">
    <g fill="none" fill-rule="evenodd" stroke="#FFF" stroke-linecap="round" stroke-linejoin="round" stroke-width="1.5">
        <path d="M5.515 11.483h5.13M9.565 15.221H3.757c-.575 0-1.042-.328-1.042-.733v-8.8c0-.406.467-.734 1.042-.734H14.17c.575 0 1.041.328 1.041.734v1.425M5.515 8.685H9.25M16.121 10.565a1.4 1.4 0 1 1-2.798 0 1.4 1.4 0 0 1 2.798 0zM17.845 16.197h-6.031a2.512 2.512 0 0 1 2.513-2.51h1.005a2.512 2.512 0 0 1 2.513 2.51z"/>
    </g>
</svg>
