<?xml version="1.0" encoding="UTF-8"?>
<svg width="22px" height="25px" viewBox="0 0 22 25" version="1.1" xmlns="http://www.w3.org/2000/svg" xmlns:xlink="http://www.w3.org/1999/xlink">
    <!-- Generator: Sketch 49.3 (51167) - http://www.bohemiancoding.com/sketch -->
    <title>ic-invitation-alert</title>
    <desc>Created with Sketch.</desc>
    <defs></defs>
    <g id="iOS" stroke="none" stroke-width="1" fill="none" fill-rule="evenodd">
        <g id="ic-invitation-alert" transform="translate(-11.000000, -9.000000)">
            <rect id="Rectangle-path" x="0.125" y="0.648" width="39" height="39" rx="19.5"></rect>
            <g id="Group" transform="translate(11.125000, 10.000000)" fill="#8994B0" fill-rule="nonzero" stroke="#8994B0">
                <path d="M8.914,12.305 C9.03302647,12.4201928 9.22197353,12.4201928 9.341,12.305 L11.474,10.257 C11.76,9.982 11.922,9.612 11.931,9.215 C11.9402307,8.8205334 11.7911359,8.43879324 11.517,8.155 C11.2373713,7.86162994 10.8492844,7.69634035 10.444,7.698 C10.0603021,7.69739551 9.69136607,7.8458304 9.415,8.112 L9.127,8.388 L8.84,8.112 C8.56338506,7.84558972 8.19404364,7.69713599 7.81,7.698 C7.20336313,7.69880218 6.65794893,8.06778863 6.43151281,8.63058133 C6.20507668,9.19337402 6.34295962,9.8372808 6.78,10.258 L8.914,12.305 Z M7.182,8.582 C7.34589775,8.40997948 7.5734024,8.31304587 7.811,8.314 C8.036,8.314 8.251,8.4 8.413,8.557 L8.914,9.037 C9.034,9.152 9.221,9.152 9.341,9.037 L9.841,8.557 C10.0028147,8.40076359 10.2190696,8.31361608 10.444,8.314 C10.684,8.314 10.907,8.409 11.073,8.582 C11.2332235,8.74805853 11.3203633,8.97130924 11.315,9.202 C11.3108563,9.43328613 11.2143521,9.6533012 11.047,9.813 L9.127,11.656 L7.207,9.813 C6.86157503,9.47975242 6.85040136,8.93000822 7.182,8.583 L7.182,8.582 Z" id="Shape"></path>
                <path d="M6.148,14.937 C6.148,15.107 6.285,15.245 6.455,15.245 L11.8,15.245 C11.9701037,15.245 12.108,15.1071037 12.108,14.937 C12.108,14.7668963 11.9701037,14.629 11.8,14.629 L6.456,14.629 C6.28628695,14.629551 6.14899911,14.7672861 6.149,14.937 L6.148,14.937 Z M6.455,16.94 L11.8,16.94 C11.9100378,16.94 12.0117169,16.8812955 12.0667359,16.786 C12.1217548,16.6907045 12.1217548,16.5732955 12.0667359,16.478 C12.0117169,16.3827045 11.9100378,16.324 11.8,16.324 L6.456,16.324 C6.2858963,16.324 6.148,16.4618963 6.148,16.632 C6.148,16.8021037 6.2858963,16.94 6.456,16.94 L6.455,16.94 Z" id="Shape" stroke-width="0.5"></path>
                <path d="M15.31,2.676 L14.741,2.676 L14.741,0.351 C14.7410917,0.258386745 14.6995041,0.17064836 14.6277563,0.112086636 C14.5560085,0.0535249116 14.4617175,0.0303570175 14.371,0.049 L1.511,2.677 C0.968080283,2.69690247 0.538173233,3.14271564 0.538,3.686 L0.538,18.55 C0.538,19.106 0.991,19.559 1.548,19.559 L7.391,19.559 C7.5611037,19.559 7.699,19.4211037 7.699,19.251 C7.699,19.0808963 7.5611037,18.943 7.391,18.943 L2.995,18.943 L2.995,3.292 L15.31,3.292 C15.527,3.292 15.704,3.469 15.704,3.686 L15.704,18.55 C15.7034487,18.7672096 15.5272103,18.9430007 15.31,18.943 L6.27,18.943 C6.0998963,18.943 5.962,19.0808963 5.962,19.251 C5.962,19.4211037 6.0998963,19.559 6.27,19.559 L15.31,19.559 C15.8678076,19.559 16.32,19.1068076 16.32,18.549 L16.32,3.687 C16.32,3.1291924 15.8678076,2.677 15.31,2.677 L15.31,2.676 Z M2.38,18.944 L1.548,18.944 C1.33118016,18.9434504 1.15554961,18.7678198 1.155,18.551 L1.155,3.686 C1.155,3.469 1.331,3.292 1.548,3.292 L2.38,3.292 L2.38,18.944 Z M14.127,2.676 L4.593,2.676 L14.127,0.728 L14.127,2.676 Z" id="Shape"></path>
            </g>
            <circle id="Oval" fill="#FFFFFF" fill-rule="nonzero" cx="26.125" cy="26.543" r="6.5"></circle>
            <g id="Group" stroke-linecap="round" stroke-linejoin="round" transform="translate(22.125000, 22.000000)" stroke="#FD786B" stroke-width="1.7">
                <path d="M5.08,7.465 C5.08,8.09736604 4.56736604,8.61 3.935,8.61 C3.30263396,8.61 2.79,8.09736604 2.79,7.465 L5.08,7.465 Z M1.645,2.887 C1.645,1.62226792 2.67026792,0.597 3.935,0.597 C5.19973208,0.597 6.225,1.62226792 6.225,2.887 L6.225,4.604 L7.335,6.551 C7.429,6.738 7.334,6.892 7.124,6.892 L0.747,6.892 C0.537,6.892 0.442,6.738 0.537,6.551 L1.645,4.604 L1.645,2.887 Z" id="Shape"></path>
            </g>
        </g>
    </g>
</svg>