<svg xmlns="http://www.w3.org/2000/svg" width="18" height="18" viewBox="0 0 18 18">
    <path fill="none" fill-rule="nonzero" stroke="#DFE2EA" stroke-width="2" d="M15.752 13.171l-2.34-2.34c-.467-.465-1.24-.451-1.722.031l-1.18 1.18a34.506 34.506 0 0 1-.232-.13c-.745-.413-1.764-.978-2.837-2.052C6.365 8.785 5.8 7.764 5.385 7.02c-.043-.08-.085-.156-.126-.228l.791-.79.39-.39c.483-.483.496-1.255.03-1.721L4.13 1.549c-.466-.466-1.238-.451-1.721.032l-.66.663.018.018a3.815 3.815 0 0 0-.544.96 3.976 3.976 0 0 0-.242.972c-.309 2.563.862 4.905 4.04 8.083 4.393 4.392 7.934 4.06 8.086 4.044.333-.04.652-.119.976-.245.348-.136.673-.32.955-.54l.015.012.668-.655c.482-.483.496-1.255.031-1.722z"/>
</svg>
