<svg xmlns="http://www.w3.org/2000/svg" width="45" height="28" viewBox="0 0 45 28">
    <g fill="none" fill-rule="evenodd" stroke-linecap="round" stroke-linejoin="round" stroke-width="2">
        <g stroke="#8994B0">
            <path d="M20.18 24.823a13.08 13.08 0 0 1-6.77 1.876C6.163 26.699.287 20.826.287 13.582.286 6.338 6.162.466 13.41.466c7.248 0 13.125 5.872 13.125 13.116 0 2.6-.756 5.022-2.06 7.059M20.91 24.825l5.626 1.874-1.875-5.622M9.66 11.708h7.5M9.66 17.33h3.75"/>
        </g>
        <g stroke="#FD786B">
            <path d="M38.844 23.12a10.174 10.174 0 0 1-5.265 1.459c-.743 0-1.468-.08-2.165-.23M28.422 5.57a10.166 10.166 0 0 1 5.157-1.396c5.638 0 10.208 4.568 10.208 10.202 0 2.021-.587 3.906-1.6 5.49M39.413 23.121l4.375 1.458-1.459-4.372M30.663 12.92h5.833M30.663 17.292h2.916"/>
        </g>
    </g>
</svg>
