<svg xmlns="http://www.w3.org/2000/svg" width="21" height="21" viewBox="0 0 21 21">
    <path fill="#FFF" fill-rule="evenodd" stroke="#FFF" stroke-width=".2" d="M16.463 10.32a5.657 5.657 0 0 0-5.65-5.65 5.657 5.657 0 0 0-5.65 5.65 5.657 5.657 0 0 0 5.65 5.65 5.657 5.657 0 0 0 5.65-5.65m1.19 0a6.848 6.848 0 0 1-6.84 6.84 6.848 6.848 0 0 1-6.84-6.84 6.848 6.848 0 0 1 6.84-6.84 6.848 6.848 0 0 1 6.84 6.84m-6.879 2.382a.748.748 0 0 0-.526 1.27c.14.138.33.218.526.218a.75.75 0 0 0 .526-.218.749.749 0 0 0 0-1.052.75.75 0 0 0-.526-.218m2.257-5.431c.47.53.693 1.27.602 2.03-.172 1.428-1.216 1.937-2.145 1.937a.695.695 0 0 0-.08.002v.361a.595.595 0 0 1-1.19 0v-.479c0-.49.204-1.074 1.27-1.074.575 0 .883-.299.954-.889.024-.2.042-.707-.305-1.099-.283-.318-.741-.48-1.363-.48-1.346 0-1.385.87-1.385.97a.595.595 0 0 1-1.19 0c0-.601.463-2.16 2.575-2.16 1.216 0 1.901.48 2.257.88"/>
</svg>
